<?xml version="1.0" encoding="utf-8"?>
<!-- Generator: Adobe Illustrator 24.2.0, SVG Export Plug-In . SVG Version: 6.00 Build 0)  -->
<svg version="1.1" id="b759170a-51c3-4e2f-999d-77dec9fd6d11"
	 xmlns="http://www.w3.org/2000/svg" xmlns:xlink="http://www.w3.org/1999/xlink" x="0px" y="0px" viewBox="0 0 1140.6 787.3"
	 style="enable-background:new 0 0 1140.6 787.3;" xml:space="preserve">
<style type="text/css">
	.st0{opacity:0.6;fill:#55128A;}
	.st1{enable-background:new    ;}
	.st2{fill:url(#SVGID_1_);}
	.st3{fill:#8B3DCE;}
	.st4{fill:url(#SVGID_2_);}
	.st5{fill:#252734;}
	.st6{fill:#514D9A;}
	.st7{fill:url(#SVGID_3_);}
	.st8{fill:url(#SVGID_4_);}
	.st9{fill:#171A22;}
	.st10{fill:#35384A;}
	.st11{opacity:0.2;fill:#E9EAEB;}
	.st12{opacity:0.4;fill:#CB89F0;}
	.st13{opacity:0.5;fill:#CCCDCE;}
	.st14{clip-path:url(#SVGID_6_);fill:#AD852C;}
	.st15{fill:#95E5FF;}
	.st16{fill:#3D72E8;}
	.st17{opacity:0.6;fill:#50197C;}
	.st18{fill:url(#SVGID_7_);}
	.st19{fill:#282A35;}
	.st20{fill:url(#SVGID_8_);}
	.st21{fill:url(#SVGID_9_);}
	.st22{fill:#1E1F27;}
	.st23{fill:#191414;}
	.st24{opacity:0.1;fill:#D0D6D6;}
	.st25{opacity:0.2;fill:#D0D6D6;}
	.st26{clip-path:url(#SVGID_11_);fill:#7C633C;}
	.st27{fill:#C0F3FF;}
	.st28{fill:url(#SVGID_12_);}
	.st29{fill:#181A23;}
	.st30{opacity:0.9;}
	.st31{fill:#120C0C;}
	.st32{fill:url(#SVGID_13_);}
	.st33{fill:url(#SVGID_14_);}
	.st34{opacity:0.1;fill:#EFF6F6;}
	.st35{opacity:0.2;fill:#EFF6F6;}
	.st36{clip-path:url(#SVGID_16_);fill:#AD852C;}
	.st37{fill:#4B45C4;}
	.st38{fill:#4888F9;}
	.st39{fill:#FFFFF7;}
	.st40{opacity:0.4;fill:#3D3292;}
	.st41{fill:#B879D9;}
	.st42{fill:url(#SVGID_17_);}
	.st43{fill:#FFC9FF;}
	.st44{fill:#F9B6FF;}
	.st45{fill:#CB89F0;}
	.st46{fill:url(#SVGID_18_);}
	.st47{fill:url(#Cylinder_face_1_);}
	.st48{fill:url(#Cylinder_face_2_);}
	.st49{fill:#3A1147;}
	.st50{fill:url(#Cylinder_body_1_);}
	.st51{opacity:0.2;fill:url(#SVGID_19_);}
	.st52{opacity:0.2;fill:url(#SVGID_20_);}
	.st53{fill:#A35DD4;}
	.st54{fill:url(#SVGID_21_);}
	.st55{fill:url(#SVGID_22_);}
	.st56{fill:url(#SVGID_23_);}
	.st57{fill:#FFFFD7;}
	.st58{fill:#FFFFFF;}
	.st59{fill:#3D3292;}
	.st60{fill:#8E8E8E;}
	.st61{fill:#F7F7F7;}
</style>
<g id="_x31_">
	<g>
		<path class="st0" d="M891.6,519.1L630.6,376.6L423.5,496.1l-67.7-79.4L39.5,595.1l9.2,5.3h308.4l190.8,110.2c3,1.7,21,1.7,24,0
			L891.6,526C894.3,524.5,894.3,520.6,891.6,519.1z"/>
		<g>
			<g>
				<g class="st1">
					<linearGradient id="SVGID_1_" gradientUnits="userSpaceOnUse" x1="265.2493" y1="179.1979" x2="586.905" y2="179.1979">
						<stop  offset="0" style="stop-color:#8B3DCE"/>
						<stop  offset="1" style="stop-color:#CB89F0"/>
					</linearGradient>
					<path class="st2" d="M584.6,87.6c-1.3-0.3-2.7,0-4.1,0.8l-315.2,182l2.3,0.5l315.2-182c1.4-0.8,2.8-1,4.1-0.8L584.6,87.6z"/>
					<path class="st3" d="M332,565.2l-69.2-281.5l-2.3-0.5l69.2,281.5c0.8,3.1,2.7,5.1,5,5.6l2.3,0.5
						C334.7,570.4,332.8,568.4,332,565.2z"/>
					<linearGradient id="SVGID_2_" gradientUnits="userSpaceOnUse" x1="260.1236" y1="277.0694" x2="267.5816" y2="277.0694">
						<stop  offset="0" style="stop-color:#8B3DCE"/>
						<stop  offset="1" style="stop-color:#CB89F0"/>
					</linearGradient>
					<path class="st4" d="M267.6,270.9l-2.3-0.5c-3.9,2.2-6,8-4.8,12.9l2.3,0.5C261.6,278.8,263.7,273.1,267.6,270.9z"/>
					<path class="st5" d="M661.1,375.2L591.9,93.7c-1.2-4.9-5.3-7.1-9.1-4.8l-315.2,182c-3.9,2.2-6,8-4.8,12.9L332,565.2
						c1.2,4.9,5.3,7.1,9.1,4.8l315.2-182C660.2,385.9,662.3,380.1,661.1,375.2z"/>
					<polygon class="st6" points="647.6,353.7 584.5,97.2 269.8,278.9 332.9,535.3 					"/>
				</g>
				<g class="st1">
					<linearGradient id="SVGID_3_" gradientUnits="userSpaceOnUse" x1="559.8265" y1="610.3793" x2="582.176" y2="610.3793">
						<stop  offset="0" style="stop-color:#8B3DCE"/>
						<stop  offset="1" style="stop-color:#CB89F0"/>
					</linearGradient>
					<path class="st7" d="M338,566.3l0,8.7c0,1.5,1,2.9,2.9,4l221.3,127.8c3.9,2.2,10.1,2.2,13.9,0l313.1-182c1.9-1.1,2.8-2.5,2.8-4
						l0-8.7L338,566.3z"/>
					<linearGradient id="SVGID_4_" gradientUnits="userSpaceOnUse" x1="337.9779" y1="539.2463" x2="892.1169" y2="539.2463">
						<stop  offset="0" style="stop-color:#F5ABFF"/>
						<stop  offset="0.4557" style="stop-color:#FFC5FF"/>
						<stop  offset="1" style="stop-color:#FFDEFF"/>
					</linearGradient>
					<path class="st8" d="M889.2,508.1L667.9,380.3c-3.9-2.2-10.1-2.2-13.9,0l-313.1,182c-3.8,2.2-3.8,5.8,0,8.1l221.3,127.8
						c3.9,2.2,10.1,2.2,13.9,0l313.1-182C893.1,514,893.1,510.3,889.2,508.1z"/>
				</g>
				<g>
					<path class="st9" d="M633.3,419.2c0-0.2,0-0.3,0-0.5c0-0.2,0-0.3,0-0.5c-0.1-0.6,0.2-1.3,1-1.7L649,408c1.4-0.8,3.7-0.8,5.2,0
						l12.3,7.1c0.8,0.5,1.1,1.1,1,1.7c0,0.2,0,0.3,0,0.5c0,0.2,0,0.3,0,0.5c0.1,0.6-0.2,1.3-1,1.7l-14.7,8.5c-1.4,0.8-3.7,0.8-5.2,0
						l-12.3-7.1C633.5,420.5,633.2,419.8,633.3,419.2z M658,407.3l12.3,7.1c1.4,0.8,3.7,0.8,5.2,0l14.7-8.5c0.8-0.5,1.1-1.1,1-1.7
						c0-0.2,0-0.3,0-0.5c0-0.2,0-0.3,0-0.5c0.1-0.6-0.2-1.3-1-1.7l-12.3-7.1c-1.4-0.8-3.7-0.8-5.2,0l-14.7,8.5
						c-0.8,0.5-1.1,1.1-1,1.7c0,0.2,0,0.3,0,0.5c0,0.2,0,0.3,0,0.5C656.9,406.2,657.2,406.8,658,407.3z M610.7,434.6l12.3,7.1
						c1.4,0.8,3.7,0.8,5.2,0l14.7-8.5c0.8-0.5,1.1-1.1,1-1.7c0-0.2,0-0.3,0-0.5c0-0.2,0-0.3,0-0.5c0.1-0.6-0.2-1.3-1-1.7l-12.3-7.1
						c-1.4-0.8-3.7-0.8-5.2,0l-14.7,8.5c-0.8,0.5-1.1,1.1-1,1.7c0,0.2,0,0.3,0,0.5c0,0.2,0,0.3,0,0.5
						C609.6,433.5,609.8,434.1,610.7,434.6z M432.6,586.9L445,594c1.4,0.8,3.7,0.8,5.2,0l14.7-8.5c0.8-0.5,1.1-1.1,1-1.7
						c0-0.2,0-0.3,0-0.5c0-0.2,0-0.3,0-0.5c0.1-0.6-0.2-1.3-1-1.7l-12.3-7.1c-1.4-0.8-3.7-0.8-5.2,0l-14.7,8.5
						c-0.8,0.5-1.1,1.1-1,1.7c0,0.2,0,0.3,0,0.5c0,0.2,0,0.3,0,0.5C431.5,585.8,431.8,586.4,432.6,586.9z M484.3,507.4l12.3,7.1
						c1.4,0.8,3.7,0.8,5.2,0l14.7-8.5c0.8-0.5,1.1-1.1,1-1.7c0-0.2,0-0.3,0-0.5c0-0.2,0-0.3,0-0.5c0.1-0.6-0.2-1.3-1-1.7l-12.3-7.1
						c-1.4-0.8-3.7-0.8-5.2,0l-14.7,8.5c-0.8,0.5-1.1,1.1-1,1.7c0,0.2,0,0.3,0,0.5c0,0.2,0,0.3,0,0.5
						C483.2,506.3,483.5,506.9,484.3,507.4z M531.6,480.1l12.3,7.1c1.4,0.8,3.7,0.8,5.2,0l14.7-8.5c0.8-0.5,1.1-1.1,1-1.7
						c0-0.2,0-0.3,0-0.5c0-0.2,0-0.3,0-0.5c0.1-0.6-0.2-1.3-1-1.7l-12.3-7.1c-1.4-0.8-3.7-0.8-5.2,0l-14.7,8.5
						c-0.8,0.5-1.1,1.1-1,1.7c0,0.2,0,0.3,0,0.5c0,0.2,0,0.3,0,0.5C530.5,479,530.8,479.6,531.6,480.1z M578.9,452.8l12.3,7.1
						c1.4,0.8,3.7,0.8,5.2,0l22.3-12.9c0.8-0.5,1.1-1.1,1-1.7c0-0.2,0-0.3,0-0.5c0-0.2,0-0.3,0-0.5c0.1-0.6-0.2-1.3-1-1.7l-12.3-7.1
						c-1.4-0.8-3.7-0.8-5.2,0l-22.3,12.9c-0.8,0.5-1.1,1.1-1,1.7c0,0.2,0,0.3,0,0.5c0,0.2,0,0.3,0,0.5
						C577.8,451.7,578.1,452.3,578.9,452.8z M555.3,466.4l12.3,7.1c1.4,0.8,3.7,0.8,5.2,0l14.7-8.5c0.8-0.5,1.1-1.1,1-1.7
						c0-0.2,0-0.3,0-0.5c0-0.2,0-0.3,0-0.5c0.1-0.6-0.2-1.3-1-1.7l-12.3-7.1c-1.4-0.8-3.7-0.8-5.2,0l-14.7,8.5
						c-0.8,0.5-1.1,1.1-1,1.7c0,0.2,0,0.3,0,0.5c0,0.2,0,0.3,0,0.5C554.2,465.3,554.5,466,555.3,466.4z M508,493.8l12.3,7.1
						c1.4,0.8,3.7,0.8,5.2,0l14.7-8.5c0.8-0.5,1.1-1.1,1-1.7c0-0.2,0-0.3,0-0.5c0-0.2,0-0.3,0-0.5c0.1-0.6-0.2-1.3-1-1.7l-12.3-7.1
						c-1.4-0.8-3.7-0.8-5.2,0l-14.7,8.5c-0.8,0.5-1.1,1.1-1,1.7c0,0.2,0,0.3,0,0.5c0,0.2,0,0.3,0,0.5
						C506.8,492.6,507.1,493.3,508,493.8z M608.6,460.7l12.3,7.1c1.4,0.8,3.7,0.8,5.2,0l14.7-8.5c0.8-0.5,1.1-1.1,1-1.7
						c0-0.2,0-0.3,0-0.5c0-0.2,0-0.3,0-0.5c0.1-0.6-0.2-1.3-1-1.7l-12.3-7.1c-1.4-0.8-3.7-0.8-5.2,0l-14.7,8.5
						c-0.8,0.5-1.1,1.1-1,1.7c0,0.2,0,0.3,0,0.5c0,0.2,0,0.3,0,0.5C607.5,459.6,607.8,460.3,608.6,460.7z M419.3,570l12.3,7.1
						c1.4,0.8,3.7,0.8,5.2,0l14.7-8.5c0.8-0.5,1.1-1.1,1-1.7c0-0.2,0-0.3,0-0.5c0-0.2,0-0.3,0-0.5c0.1-0.6-0.2-1.3-1-1.7l-12.3-7.1
						c-1.4-0.8-3.7-0.8-5.2,0l-14.7,8.5c-0.8,0.5-1.1,1.1-1,1.7c0,0.2,0,0.3,0,0.5c0,0.2,0,0.3,0,0.5
						C418.2,568.9,418.5,569.5,419.3,570z M584.9,474.4l12.3,7.1c1.4,0.8,3.7,0.8,5.2,0l14.7-8.5c0.8-0.5,1.1-1.1,1-1.7
						c0-0.2,0-0.3,0-0.5c0-0.2,0-0.3,0-0.5c0.1-0.6-0.2-1.3-1-1.7l-12.3-7.1c-1.4-0.8-3.7-0.8-5.2,0l-14.7,8.5
						c-0.8,0.5-1.1,1.1-1,1.7c0,0.2,0,0.3,0,0.5c0,0.2,0,0.3,0,0.5C583.8,473.3,584.1,473.9,584.9,474.4z M561.3,488.1l12.3,7.1
						c1.4,0.8,3.7,0.8,5.2,0l14.7-8.5c0.8-0.5,1.1-1.1,1-1.7c0-0.2,0-0.3,0-0.5c0-0.2,0-0.3,0-0.5c0.1-0.6-0.2-1.3-1-1.7l-12.3-7.1
						c-1.4-0.8-3.7-0.8-5.2,0l-14.7,8.5c-0.8,0.5-1.1,1.1-1,1.7c0,0.2,0,0.3,0,0.5c0,0.2,0,0.3,0,0.5
						C560.2,486.9,560.5,487.6,561.3,488.1z M537.6,501.7l12.3,7.1c1.4,0.8,3.7,0.8,5.2,0l14.7-8.5c0.8-0.5,1.1-1.1,1-1.7
						c0-0.2,0-0.3,0-0.5c0-0.2,0-0.3,0-0.5c0.1-0.6-0.2-1.3-1-1.7l-12.3-7.1c-1.4-0.8-3.7-0.8-5.2,0l-14.7,8.5
						c-0.8,0.5-1.1,1.1-1,1.7c0,0.2,0,0.3,0,0.5c0,0.2,0,0.3,0,0.5C536.5,500.6,536.8,501.2,537.6,501.7z M443,556.4l12.3,7.1
						c1.4,0.8,3.7,0.8,5.2,0l14.7-8.5c0.8-0.5,1.1-1.1,1-1.7c0-0.2,0-0.3,0-0.5c0-0.2,0-0.3,0-0.5c0.1-0.6-0.2-1.3-1-1.7l-12.3-7.1
						c-1.4-0.8-3.7-0.8-5.2,0l-14.7,8.5c-0.8,0.5-1.1,1.1-1,1.7c0,0.2,0,0.3,0,0.5c0,0.2,0,0.3,0,0.5
						C441.9,555.2,442.1,555.9,443,556.4z M466.6,542.7l12.3,7.1c1.4,0.8,3.7,0.8,5.2,0l14.7-8.5c0.8-0.5,1.1-1.1,1-1.7
						c0-0.2,0-0.3,0-0.5c0-0.2,0-0.3,0-0.5c0.1-0.6-0.2-1.3-1-1.7c-18.1-10.5-12-10.3-32.1,1.3c-0.8,0.5-1.1,1.1-1,1.7
						c0,0.2,0,0.3,0,0.5c0,0.2,0,0.3,0,0.5C465.5,541.6,465.8,542.2,466.6,542.7z M490.3,529l12.3,7.1c1.4,0.8,3.7,0.8,5.2,0
						l14.7-8.5c0.8-0.5,1.1-1.1,1-1.7c0-0.2,0-0.3,0-0.5c0-0.2,0-0.3,0-0.5c0.1-0.6-0.2-1.3-1-1.7l-12.3-7.1c-1.4-0.8-3.7-0.8-5.2,0
						l-14.7,8.5c-0.8,0.5-1.1,1.1-1,1.7c0,0.2,0,0.3,0,0.5c0,0.2,0,0.3,0,0.5C489.2,527.9,489.5,528.6,490.3,529z M514,515.4
						c12.1,7,14.2,9,17.5,7.1l14.7-8.5c0.8-0.5,1.1-1.1,1-1.7c0-0.2,0-0.3,0-0.5c0-0.2,0-0.3,0-0.5c0.1-0.6-0.2-1.3-1-1.7l-12.3-7.1
						c-1.4-0.8-3.7-0.8-5.2,0l-14.7,8.5c-0.8,0.5-1.1,1.1-1,1.7c0,0.2,0,0.3,0,0.5c0,0.2,0,0.3,0,0.5
						C512.8,514.3,513.1,514.9,514,515.4z M471.8,605.4c0-0.2,0-0.3,0-0.5c0-0.2,0-0.3,0-0.5c0.1-0.6-0.2-1.3-1-1.7l-12.3-7.1
						c-1.4-0.8-3.7-0.8-5.2,0L431,608.4c-0.8,0.5-1.1,1.1-1,1.7c0,0.2,0,0.3,0,0.5c0,0.2,0,0.3,0,0.5c-0.1,0.6,0.2,1.3,1,1.7
						l12.3,7.1c1.4,0.8,3.7,0.8,5.2,0l22.3-12.9C471.6,606.7,471.9,606,471.8,605.4z M442.1,597.5c0-0.2,0-0.3,0-0.5
						c0-0.2,0-0.3,0-0.5c0.1-0.6-0.2-1.3-1-1.7l-12.3-7.1c-1.4-0.8-3.7-0.8-5.2,0l-14.7,8.5c-0.8,0.5-1.1,1.1-1,1.7
						c0,0.2,0,0.3,0,0.5c0,0.2,0,0.3,0,0.5c-0.1,0.6,0.2,1.3,1,1.7l12.3,7.1c1.4,0.8,3.7,0.8,5.2,0l14.7-8.5
						C441.9,598.7,442.2,598.1,442.1,597.5z M460.6,521.1c17.8,10.3,11.6,10.5,32.1-1.3c0.8-0.5,1.1-1.1,1-1.7c0-0.2,0-0.3,0-0.5
						c0-0.2,0-0.3,0-0.5c0.1-0.6-0.2-1.3-1-1.7l-12.3-7.1c-1.4-0.8-3.7-0.8-5.2,0l-14.7,8.5c-0.8,0.5-1.1,1.1-1,1.7
						c0,0.2,0,0.3,0,0.5c0,0.2,0,0.3,0,0.5C459.5,520,459.8,520.6,460.6,521.1z M708.6,468.9c0-0.2,0-0.3,0-0.5c0-0.2,0-0.3,0-0.5
						c0.1-0.6-0.2-1.3-1-1.7l-12.3-7.1c-1.4-0.8-3.7-0.8-5.2,0l-14.7,8.5c-0.8,0.5-1.1,1.1-1,1.7c0,0.2,0,0.3,0,0.5
						c0,0.2,0,0.3,0,0.5c-0.1,0.6,0.2,1.3,1,1.7l12.3,7.1c1.4,0.8,3.7,0.8,5.2,0l14.7-8.5C708.4,470.2,708.7,469.5,708.6,468.9z
						 M428.8,580.6c0-0.2,0-0.3,0-0.5c0-0.2,0-0.3,0-0.5c0.1-0.6-0.2-1.3-1-1.7l-12.3-7.1c-1.4-0.8-3.7-0.8-5.2,0L388,583.6
						c-0.8,0.5-1.1,1.1-1,1.7c0,0.2,0,0.3,0,0.5c0,0.2,0,0.3,0,0.5c-0.1,0.6,0.2,1.3,1,1.7l12.3,7.1c1.4,0.8,3.7,0.8,5.2,0
						l22.3-12.9C428.6,581.9,428.9,581.2,428.8,580.6z M437,534.7l12.3,7.1c1.4,0.8,3.7,0.8,5.2,0l14.7-8.5c0.8-0.5,1.1-1.1,1-1.7
						c0-0.2,0-0.3,0-0.5c0-0.2,0-0.3,0-0.5c0.1-0.6-0.2-1.3-1-1.7l-12.3-7.1c-1.4-0.8-3.7-0.8-5.2,0l-14.7,8.5
						c-0.8,0.5-1.1,1.1-1,1.7c0,0.2,0,0.3,0,0.5c0,0.2,0,0.3,0,0.5C435.9,533.6,436.1,534.3,437,534.7z M413.3,548.4l12.3,7.1
						c1.4,0.8,3.7,0.8,5.2,0l14.7-8.5c0.8-0.5,1.1-1.1,1-1.7c0-0.2,0-0.3,0-0.5c0-0.2,0-0.3,0-0.5c0.1-0.6-0.2-1.3-1-1.7l-12.3-7.1
						c-1.4-0.8-3.7-0.8-5.2,0l-14.7,8.5c-0.8,0.5-1.1,1.1-1,1.7c0,0.2,0,0.3,0,0.5c0,0.2,0,0.3,0,0.5
						C412.2,547.3,412.5,547.9,413.3,548.4z M399.1,572.6c0-0.2,0-0.3,0-0.5c0-0.2,0-0.3,0-0.5c0.1-0.6-0.2-1.3-1-1.7l-12.3-7.1
						c-1.4-0.8-3.7-0.8-5.2,0l-14.7,8.5c-0.8,0.5-1.1,1.1-1,1.7c0,0.2,0,0.3,0,0.5c0,0.2,0,0.3,0,0.5c-0.1,0.6,0.2,1.3,1,1.7
						l12.3,7.1c1.4,0.8,3.7,0.8,5.2,0l14.7-8.5C398.9,573.9,399.2,573.3,399.1,572.6z M389.6,562.1l12.3,7.1c1.4,0.8,3.7,0.8,5.2,0
						l14.7-8.5c0.8-0.5,1.1-1.1,1-1.7c0-0.2,0-0.3,0-0.5c0-0.2,0-0.3,0-0.5c0.1-0.6-0.2-1.3-1-1.7l-12.3-7.1c-1.4-0.8-3.7-0.8-5.2,0
						l-14.7,8.5c-0.8,0.5-1.1,1.1-1,1.7c0,0.2,0,0.3,0,0.5c0,0.2,0,0.3,0,0.5C388.5,560.9,388.8,561.6,389.6,562.1z M777.5,453.1
						c0.1-0.6-0.2-1.3-1-1.7l-12.3-7.1c-1.4-0.8-3.7-0.8-5.2,0l-14.7,8.5c-0.8,0.5-1.1,1.1-1,1.7c0,0.2,0,0.3,0,0.5
						c0,0.2,0,0.3,0,0.5c-0.1,0.6,0.2,1.3,1,1.7l12.3,7.1c1.4,0.8,3.7,0.8,5.2,0l14.7-8.5c0.8-0.5,1.1-1.1,1-1.7c0-0.2,0-0.3,0-0.5
						C777.6,453.4,777.6,453.2,777.5,453.1z M683.7,479.7l-12.3-7.1c-1.4-0.8-3.7-0.8-5.2,0l-14.7,8.5c-0.8,0.5-1.1,1.1-1,1.7
						c0,0.2,0,0.3,0,0.5c0,0.2,0,0.3,0,0.5c-0.1,0.6,0.2,1.3,1,1.7l12.3,7.1c1.4,0.8,3.7,0.8,5.2,0l14.7-8.5c0.8-0.5,1.1-1.1,1-1.7
						c0-0.2,0-0.3,0-0.5c0-0.2,0-0.3,0-0.5C684.9,480.8,684.6,480.2,683.7,479.7z M731.2,452.5l-12.3-7.1c-1.4-0.8-3.7-0.8-5.2,0
						l-14.7,8.5c-0.8,0.5-1.1,1.1-1,1.7c0,0.2,0,0.3,0,0.5c0,0.2,0,0.3,0,0.5c-0.1,0.6,0.2,1.3,1,1.7l12.3,7.1
						c1.4,0.8,3.7,0.8,5.2,0l14.7-8.5c0.8-0.5,1.1-1.1,1-1.7c0-0.2,0-0.3,0-0.5c0-0.2,0-0.3,0-0.5
						C732.4,453.6,732.1,453,731.2,452.5z M636.4,507.1l-12.3-7.1c-1.4-0.8-3.7-0.8-5.2,0l-14.7,8.5c-0.8,0.5-1.1,1.1-1,1.7
						c0,0.2,0,0.3,0,0.5c0,0.2,0,0.3,0,0.5c-0.1,0.6,0.2,1.3,1,1.7l12.3,7.1c1.4,0.8,3.7,0.8,5.2,0l14.7-8.5c0.8-0.5,1.1-1.1,1-1.7
						c0-0.2,0-0.3,0-0.5c0-0.2,0-0.3,0-0.5C637.5,508.2,637.2,507.5,636.4,507.1z M721.8,441.9c0,0.2,0,0.3,0,0.5c0,0.2,0,0.3,0,0.5
						c-0.1,0.6,0.2,1.3,1,1.7l12.3,7.1c1.4,0.8,3.7,0.8,5.2,0l14.7-8.5c0.8-0.5,1.1-1.1,1-1.7c0-0.2,0-0.3,0-0.5c0-0.2,0-0.3,0-0.5
						c0.1-0.6-0.2-1.3-1-1.7l-12.3-7.1c-1.4-0.8-3.7-0.8-5.2,0l-14.7,8.5C721.9,440.7,721.7,441.3,721.8,441.9z M541.8,561.7
						l-12.3-7.1c-1.4-0.8-3.7-0.8-5.2,0l-14.7,8.5c-0.8,0.5-1.1,1.1-1,1.7c0,0.2,0,0.3,0,0.5c0,0.2,0,0.3,0,0.5
						c-0.1,0.6,0.2,1.3,1,1.7l12.3,7.1c1.4,0.8,3.7,0.8,5.2,0l14.7-8.5c0.8-0.5,1.1-1.1,1-1.7c0-0.2,0-0.3,0-0.5c0-0.2,0-0.3,0-0.5
						C542.9,562.8,542.6,562.2,541.8,561.7z M589.1,534.4l-12.3-7.1c-1.4-0.8-3.7-0.8-5.2,0l-14.7,8.5c-0.8,0.5-1.1,1.1-1,1.7
						c0,0.2,0,0.3,0,0.5c0,0.2,0,0.3,0,0.5c-0.1,0.6,0.2,1.3,1,1.7l12.3,7.1c1.4,0.8,3.7,0.8,5.2,0l14.7-8.5c0.8-0.5,1.1-1.1,1-1.7
						c0-0.2,0-0.3,0-0.5c0-0.2,0-0.3,0-0.5C590.2,535.5,589.9,534.9,589.1,534.4z M565.4,548l-12.3-7.1c-1.4-0.8-3.7-0.8-5.2,0
						l-14.7,8.5c-0.8,0.5-1.1,1.1-1,1.7c0,0.2,0,0.3,0,0.5c0,0.2,0,0.3,0,0.5c-0.1,0.6,0.2,1.3,1,1.7l12.3,7.1
						c1.4,0.8,3.7,0.8,5.2,0l14.7-8.5c0.8-0.5,1.1-1.1,1-1.7c0-0.2,0-0.3,0-0.5c0-0.2,0-0.3,0-0.5
						C566.5,549.2,566.3,548.5,565.4,548z M518.1,575.4l-12.3-7.1c-1.4-0.8-3.7-0.8-5.2,0l-14.7,8.5c-0.8,0.5-1.1,1.1-1,1.7
						c0,0.2,0,0.3,0,0.5c0,0.2,0,0.3,0,0.5c-0.1,0.6,0.2,1.3,1,1.7l12.3,7.1c1.4,0.8,3.7,0.8,5.2,0l14.7-8.5c0.8-0.5,1.1-1.1,1-1.7
						c0-0.2,0-0.3,0-0.5c0-0.2,0-0.3,0-0.5C519.2,576.5,518.9,575.8,518.1,575.4z M494.4,589l-12.3-7.1c-1.4-0.8-3.7-0.8-5.2,0
						l-14.7,8.5c-0.8,0.5-1.1,1.1-1,1.7c0,0.2,0,0.3,0,0.5c0,0.2,0,0.3,0,0.5c-0.1,0.6,0.2,1.3,1,1.7l12.3,7.1
						c1.4,0.8,3.7,0.8,5.2,0l14.7-8.5c0.8-0.5,1.1-1.1,1-1.7c0-0.2,0-0.3,0-0.5c0-0.2,0-0.3,0-0.5
						C495.6,590.1,495.3,589.5,494.4,589z M612.8,520.7l-12.3-7.1c-1.4-0.8-3.7-0.8-5.2,0l-14.7,8.5c-0.8,0.5-1.1,1.1-1,1.7
						c0,0.2,0,0.3,0,0.5c0,0.2,0,0.3,0,0.5c-0.1,0.6,0.2,1.3,1,1.7l12.3,7.1c1.4,0.8,3.7,0.8,5.2,0l14.7-8.5c0.8-0.5,1.1-1.1,1-1.7
						c0-0.2,0-0.3,0-0.5c0-0.2,0-0.3,0-0.5C613.9,521.8,613.6,521.2,612.8,520.7z M660.1,493.4l-12.3-7.1c-1.4-0.8-3.7-0.8-5.2,0
						l-14.7,8.5c-0.8,0.5-1.1,1.1-1,1.7c0,0.2,0,0.3,0,0.5c0,0.2,0,0.3,0,0.5c-0.1,0.6,0.2,1.3,1,1.7l12.3,7.1
						c1.4,0.8,3.7,0.8,5.2,0l14.7-8.5c0.8-0.5,1.1-1.1,1-1.7c0-0.2,0-0.3,0-0.5c0-0.2,0-0.3,0-0.5
						C661.2,494.5,660.9,493.9,660.1,493.4z M531.3,592.2l-12.3-7.1c-1.4-0.8-3.7-0.8-5.2,0l-14.7,8.5c-0.8,0.5-1.1,1.1-1,1.7
						c0,0.2,0,0.3,0,0.5c0,0.2,0,0.3,0,0.5c-0.1,0.6,0.2,1.3,1,1.7l12.3,7.1c1.4,0.8,3.7,0.8,5.2,0l14.7-8.5c0.8-0.5,1.1-1.1,1-1.7
						c0-0.2,0-0.3,0-0.5c0-0.2,0-0.3,0-0.5C532.5,593.3,532.2,592.7,531.3,592.2z M555,578.5l-12.3-7.1c-1.4-0.8-3.7-0.8-5.2,0
						l-14.7,8.5c-0.8,0.5-1.1,1.1-1,1.7c0,0.2,0,0.3,0,0.5c0,0.2,0,0.3,0,0.5c-0.1,0.6,0.2,1.3,1,1.7l12.3,7.1
						c1.4,0.8,3.7,0.8,5.2,0L555,583c0.8-0.5,1.1-1.1,1-1.7c0-0.2,0-0.3,0-0.5c0-0.2,0-0.3,0-0.5C556.1,579.6,555.8,579,555,578.5z
						 M507.7,605.8l-12.3-7.1c-1.4-0.8-3.7-0.8-5.2,0l-14.7,8.5c-0.8,0.5-1.1,1.1-1,1.7c0,0.2,0,0.3,0,0.5c0,0.2,0,0.3,0,0.5
						c-0.1,0.6,0.2,1.3,1,1.7l12.3,7.1c1.4,0.8,3.7,0.8,5.2,0l14.7-8.5c0.8-0.5,1.1-1.1,1-1.7c0-0.2,0-0.3,0-0.5c0-0.2,0-0.3,0-0.5
						C508.8,607,508.5,606.3,507.7,605.8z M484,619.5l-12.3-7.1c-1.4-0.8-3.7-0.8-5.2,0l-14.7,8.5c-0.8,0.5-1.1,1.1-1,1.7
						c0,0.2,0,0.3,0,0.5c0,0.2,0,0.3,0,0.5c-0.1,0.6,0.2,1.3,1,1.7l12.3,7.1c1.4,0.8,3.7,0.8,5.2,0L484,624c0.8-0.5,1.1-1.1,1-1.7
						c0-0.2,0-0.3,0-0.5c0-0.2,0-0.3,0-0.5C485.1,620.6,484.8,620,484,619.5z M661.7,467.4l-12.3-7.1c-1.4-0.8-3.7-0.8-5.2,0
						l-22.3,12.9c-0.8,0.5-1.1,1.1-1,1.7c0,0.2,0,0.3,0,0.5c0,0.2,0,0.3,0,0.5c-0.1,0.6,0.2,1.3,1,1.7l12.3,7.1
						c1.4,0.8,3.7,0.8,5.2,0l22.3-12.9c0.8-0.5,1.1-1.1,1-1.7c0-0.2,0-0.3,0-0.5c0-0.2,0-0.3,0-0.5
						C662.8,468.5,662.5,467.8,661.7,467.4z M704.5,492.2l-12.3-7.1c-1.4-0.8-3.7-0.8-5.2,0L664.7,498c-0.8,0.5-1.1,1.1-1,1.7
						c0,0.2,0,0.3,0,0.5c0,0.2,0,0.3,0,0.5c-0.1,0.6,0.2,1.3,1,1.7l12.3,7.1c1.4,0.8,3.7,0.8,5.2,0l22.3-12.9c0.8-0.5,1.1-1.1,1-1.7
						c0-0.2,0-0.3,0-0.5c0-0.2,0-0.3,0-0.5C705.6,493.3,705.3,492.7,704.5,492.2z M752.9,465l-12.3-7.1c-1.4-0.8-3.7-0.8-5.2,0
						l-14.7,8.5c-0.8,0.5-1.1,1.1-1,1.7c0,0.2,0,0.3,0,0.5c0,0.2,0,0.3,0,0.5c-0.1,0.6,0.2,1.3,1,1.7l12.3,7.1
						c1.4,0.8,3.7,0.8,5.2,0l14.7-8.5c0.8-0.5,1.1-1.1,1-1.7c0-0.2,0-0.3,0-0.5c0-0.2,0-0.3,0-0.5C754,466.1,753.7,465.5,752.9,465z
						 M729.2,478.7l-12.3-7.1c-1.4-0.8-3.7-0.8-5.2,0l-14.7,8.5c-0.8,0.5-1.1,1.1-1,1.7c0,0.2,0,0.3,0,0.5c0,0.2,0,0.3,0,0.5
						c-0.1,0.6,0.2,1.3,1,1.7l12.3,7.1c1.4,0.8,3.7,0.8,5.2,0l14.7-8.5c0.8-0.5,1.1-1.1,1-1.7c0-0.2,0-0.3,0-0.5c0-0.2,0-0.3,0-0.5
						C730.3,479.8,730,479.1,729.2,478.7z M673.7,510.2l-12.3-7.1c-1.4-0.8-3.7-0.8-5.2,0l-109.6,63.3c-0.8,0.5-1.1,1.1-1,1.7
						c0,0.2,0,0.3,0,0.5c0,0.2,0,0.3,0,0.5c-0.1,0.6,0.2,1.3,1,1.7L559,578c1.4,0.8,3.7,0.8,5.2,0l109.6-63.3c0.8-0.5,1.1-1.1,1-1.7
						c0-0.2,0-0.3,0-0.5c0-0.2,0-0.3,0-0.5C674.8,511.4,674.5,510.7,673.7,510.2z M583.1,512.8l-12.3-7.1c-1.4-0.8-3.7-0.8-5.2,0
						l-14.7,8.5c-0.8,0.5-1.1,1.1-1,1.7c0,0.2,0,0.3,0,0.5c0,0.2,0,0.3,0,0.5c-0.1,0.6,0.2,1.3,1,1.7l12.3,7.1
						c1.4,0.8,3.7,0.8,5.2,0l14.7-8.5c0.8-0.5,1.1-1.1,1-1.7c0-0.2,0-0.3,0-0.5c0-0.2,0-0.3,0-0.5
						C584.2,513.9,583.9,513.2,583.1,512.8z M559.4,526.4l-12.3-7.1c-1.4-0.8-3.7-0.8-5.2,0l-14.7,8.5c-0.8,0.5-1.1,1.1-1,1.7
						c0,0.2,0,0.3,0,0.5c0,0.2,0,0.3,0,0.5c-0.1,0.6,0.2,1.3,1,1.7l12.3,7.1c1.4,0.8,3.7,0.8,5.2,0l14.7-8.5c0.8-0.5,1.1-1.1,1-1.7
						c0-0.2,0-0.3,0-0.5c0-0.2,0-0.3,0-0.5C560.5,527.5,560.2,526.9,559.4,526.4z M606.7,499.1l-12.3-7.1c-1.4-0.8-3.7-0.8-5.2,0
						l-14.7,8.5c-0.8,0.5-1.1,1.1-1,1.7c0,0.2,0,0.3,0,0.5c0,0.2,0,0.3,0,0.5c-0.1,0.6,0.2,1.3,1,1.7l12.3,7.1
						c1.4,0.8,3.7,0.8,5.2,0l14.7-8.5c0.8-0.5,1.1-1.1,1-1.7c0-0.2,0-0.3,0-0.5c0-0.2,0-0.3,0-0.5
						C607.9,500.2,607.6,499.6,606.7,499.1z M678.6,417c0,0.2,0,0.3,0,0.5c0,0.2,0,0.3,0,0.5c-0.1,0.6,0.2,1.3,1,1.7l12.3,7.1
						c1.4,0.8,3.7,0.8,5.2,0l14.7-8.5c0.8-0.5,1.1-1.1,1-1.7c0-0.2,0-0.3,0-0.5c0-0.2,0-0.3,0-0.5c0.1-0.6-0.2-1.3-1-1.7l-12.3-7.1
						c-1.4-0.8-3.7-0.8-5.2,0l-14.7,8.5C678.7,415.7,678.5,416.4,678.6,417z M630.4,485.4l-12.3-7.1c-1.4-0.8-3.7-0.8-5.2,0
						l-14.7,8.5c-0.8,0.5-1.1,1.1-1,1.7c0,0.2,0,0.3,0,0.5c0,0.2,0,0.3,0,0.5c-0.1,0.6,0.2,1.3,1,1.7l12.3,7.1
						c1.4,0.8,3.7,0.8,5.2,0l14.7-8.5c0.8-0.5,1.1-1.1,1-1.7c0-0.2,0-0.3,0-0.5c0-0.2,0-0.3,0-0.5
						C631.5,486.6,631.2,485.9,630.4,485.4z M535.8,540.1l-12.3-7.1c-1.4-0.8-3.7-0.8-5.2,0l-14.7,8.5c-0.8,0.5-1.1,1.1-1,1.7
						c0,0.2,0,0.3,0,0.5c0,0.2,0,0.3,0,0.5c-0.1,0.6,0.2,1.3,1,1.7L516,553c1.4,0.8,3.7,0.8,5.2,0l14.7-8.5c0.8-0.5,1.1-1.1,1-1.7
						c0-0.2,0-0.3,0-0.5c0-0.2,0-0.3,0-0.5C536.9,541.2,536.6,540.6,535.8,540.1z M488.4,567.4l-12.3-7.1c-1.4-0.8-3.7-0.8-5.2,0
						l-14.7,8.5c-0.8,0.5-1.1,1.1-1,1.7c0,0.2,0,0.3,0,0.5c0,0.2,0,0.3,0,0.5c-0.1,0.6,0.2,1.3,1,1.7l12.3,7.1
						c1.4,0.8,3.7,0.8,5.2,0l14.7-8.5c0.8-0.5,1.1-1.1,1-1.7c0-0.2,0-0.3,0-0.5c0-0.2,0-0.3,0-0.5
						C489.6,568.5,489.3,567.9,488.4,567.4z M512.1,553.7l-12.3-7.1c-1.4-0.8-3.7-0.8-5.2,0l-14.7,8.5c-0.8,0.5-1.1,1.1-1,1.7
						c0,0.2,0,0.3,0,0.5c0,0.2,0,0.3,0,0.5c-0.1,0.6,0.2,1.3,1,1.7l12.3,7.1c1.4,0.8,3.7,0.8,5.2,0l14.7-8.5c0.8-0.5,1.1-1.1,1-1.7
						c0-0.2,0-0.3,0-0.5c0-0.2,0-0.3,0-0.5C513.2,554.9,512.9,554.2,512.1,553.7z"/>
					<path class="st10" d="M398.1,572.2l-14.7,8.5c-1.4,0.8-3.7,0.8-5.2,0l-12.3-7.1c-1.4-0.8-1.4-2.2,0-3l14.7-8.5
						c1.4-0.8,3.7-0.8,5.2,0l12.3,7.1C399.5,570.1,399.5,571.4,398.1,572.2z M421.8,555.6l-12.3-7.1c-1.4-0.8-3.7-0.8-5.2,0
						l-14.7,8.5c-1.4,0.8-1.4,2.2,0,3L402,567c1.4,0.8,3.7,0.8,5.2,0l14.7-8.5C423.2,557.7,423.2,556.4,421.8,555.6z M445.4,541.9
						l-12.3-7.1c-1.4-0.8-3.7-0.8-5.2,0l-14.7,8.5c-1.4,0.8-1.4,2.2,0,3l12.3,7.1c1.4,0.8,3.7,0.8,5.2,0l14.7-8.5
						C446.9,544.1,446.9,542.8,445.4,541.9z M469.1,528.3l-12.3-7.1c-1.4-0.8-3.7-0.8-5.2,0l-14.7,8.5c-1.4,0.8-1.4,2.2,0,3
						l12.3,7.1c1.4,0.8,3.7,0.8,5.2,0l14.7-8.5C470.5,530.4,470.5,529.1,469.1,528.3z M492.8,514.6l-12.3-7.1
						c-1.4-0.8-3.7-0.8-5.2,0l-14.7,8.5c-1.4,0.8-1.4,2.2,0,3L473,526c1.4,0.8,3.7,0.8,5.2,0l14.7-8.5
						C494.2,516.8,494.2,515.4,492.8,514.6z M516.4,500.9l-12.3-7.1c-1.4-0.8-3.7-0.8-5.2,0l-14.7,8.5c-1.4,0.8-1.4,2.2,0,3
						l12.3,7.1c1.4,0.8,3.7,0.8,5.2,0l14.7-8.5C517.9,503.1,517.9,501.8,516.4,500.9z M540.1,487.3l-12.3-7.1
						c-1.4-0.8-3.7-0.8-5.2,0l-14.7,8.5c-1.4,0.8-1.4,2.2,0,3l12.3,7.1c1.4,0.8,3.7,0.8,5.2,0l14.7-8.5
						C541.5,489.4,541.5,488.1,540.1,487.3z M563.8,473.6l-12.3-7.1c-1.4-0.8-3.7-0.8-5.2,0l-14.7,8.5c-1.4,0.8-1.4,2.2,0,3
						l12.3,7.1c1.4,0.8,3.7,0.8,5.2,0l14.7-8.5C565.2,475.8,565.2,474.4,563.8,473.6z M587.4,460l-12.3-7.1c-1.4-0.8-3.7-0.8-5.2,0
						l-14.7,8.5c-1.4,0.8-1.4,2.2,0,3l12.3,7.1c1.4,0.8,3.7,0.8,5.2,0l14.7-8.5C588.8,462.1,588.8,460.8,587.4,460z M618.7,441.9
						l-12.3-7.1c-1.4-0.8-3.7-0.8-5.2,0l-22.3,12.9c-1.4,0.8-1.4,2.2,0,3l12.3,7.1c1.4,0.8,3.7,0.8,5.2,0l22.3-12.9
						C620.1,444.1,620.1,442.7,618.7,441.9z M707.6,465.5l-12.3-7.1c-1.4-0.8-3.7-0.8-5.2,0l-14.7,8.5c-1.4,0.8-1.4,2.2,0,3
						l12.3,7.1c1.4,0.8,3.7,0.8,5.2,0l14.7-8.5C709,467.7,709,466.3,707.6,465.5z M731.2,451.9l-12.3-7.1c-1.4-0.8-3.7-0.8-5.2,0
						l-14.7,8.5c-1.4,0.8-1.4,2.2,0,3l12.3,7.1c1.4,0.8,3.7,0.8,5.2,0l14.7-8.5C732.7,454,732.7,452.7,731.2,451.9z M754.9,438.2
						l-12.3-7.1c-1.4-0.8-3.7-0.8-5.2,0l-14.7,8.5c-1.4,0.8-1.4,2.2,0,3l12.3,7.1c1.4,0.8,3.7,0.8,5.2,0l14.7-8.5
						C756.3,440.4,756.3,439,754.9,438.2z M729.2,478l-12.3-7.1c-1.4-0.8-3.7-0.8-5.2,0l-14.7,8.5c-1.4,0.8-1.4,2.2,0,3l12.3,7.1
						c1.4,0.8,3.7,0.8,5.2,0l14.7-8.5C730.6,480.2,730.6,478.8,729.2,478z M752.9,464.3l-12.3-7.1c-1.4-0.8-3.7-0.8-5.2,0l-14.7,8.5
						c-1.4,0.8-1.4,2.2,0,3l12.3,7.1c1.4,0.8,3.7,0.8,5.2,0l14.7-8.5C754.3,466.5,754.3,465.2,752.9,464.3z M776.5,450.7l-12.3-7.1
						c-1.4-0.8-3.7-0.8-5.2,0l-14.7,8.5c-1.4,0.8-1.4,2.2,0,3l12.3,7.1c1.4,0.8,3.7,0.8,5.2,0l14.7-8.5
						C778,452.8,778,451.5,776.5,450.7z M427.8,577.2l-12.3-7.1c-1.4-0.8-3.7-0.8-5.2,0L388,583c-1.4,0.8-1.4,2.2,0,3l12.3,7.1
						c1.4,0.8,3.7,0.8,5.2,0l22.3-12.9C429.2,579.4,429.2,578,427.8,577.2z M451.4,563.5l-12.3-7.1c-1.4-0.8-3.7-0.8-5.2,0
						l-14.7,8.5c-1.4,0.8-1.4,2.2,0,3l12.3,7.1c1.4,0.8,3.7,0.8,5.2,0l14.7-8.5C452.9,565.7,452.9,564.4,451.4,563.5z M475.1,549.9
						l-12.3-7.1c-1.4-0.8-3.7-0.8-5.2,0l-14.7,8.5c-1.4,0.8-1.4,2.2,0,3l12.3,7.1c1.4,0.8,3.7,0.8,5.2,0l14.7-8.5
						C476.5,552,476.5,550.7,475.1,549.9z M498.8,536.2l-12.3-7.1c-1.4-0.8-3.7-0.8-5.2,0l-14.7,8.5c-1.4,0.8-1.4,2.2,0,3l12.3,7.1
						c1.4,0.8,3.7,0.8,5.2,0l14.7-8.5C500.2,538.4,500.2,537,498.8,536.2z M522.4,522.6l-12.3-7.1c-1.4-0.8-3.7-0.8-5.2,0l-14.7,8.5
						c-1.4,0.8-1.4,2.2,0,3l12.3,7.1c1.4,0.8,3.7,0.8,5.2,0l14.7-8.5C523.9,524.7,523.9,523.4,522.4,522.6z M546.1,508.9l-12.3-7.1
						c-1.4-0.8-3.7-0.8-5.2,0l-14.7,8.5c-1.4,0.8-1.4,2.2,0,3l12.3,7.1c1.4,0.8,3.7,0.8,5.2,0l14.7-8.5
						C547.5,511.1,547.5,509.7,546.1,508.9z M569.8,495.2l-12.3-7.1c-1.4-0.8-3.7-0.8-5.2,0l-14.7,8.5c-1.4,0.8-1.4,2.2,0,3
						l12.3,7.1c1.4,0.8,3.7,0.8,5.2,0l14.7-8.5C571.2,497.4,571.2,496.1,569.8,495.2z M593.4,481.6l-12.3-7.1
						c-1.4-0.8-3.7-0.8-5.2,0l-14.7,8.5c-1.4,0.8-1.4,2.2,0,3l12.3,7.1c1.4,0.8,3.7,0.8,5.2,0l14.7-8.5
						C594.8,483.7,594.8,482.4,593.4,481.6z M617.1,467.9l-12.3-7.1c-1.4-0.8-3.7-0.8-5.2,0l-14.7,8.5c-1.4,0.8-1.4,2.2,0,3
						l12.3,7.1c1.4,0.8,3.7,0.8,5.2,0l14.7-8.5C618.5,470.1,618.5,468.7,617.1,467.9z M640.7,454.3l-12.3-7.1
						c-1.4-0.8-3.7-0.8-5.2,0l-14.7,8.5c-1.4,0.8-1.4,2.2,0,3l12.3,7.1c1.4,0.8,3.7,0.8,5.2,0l14.7-8.5
						C642.2,456.4,642.2,455.1,640.7,454.3z M441.1,594.1l-12.3-7.1c-1.4-0.8-3.7-0.8-5.2,0l-14.7,8.5c-1.4,0.8-1.4,2.2,0,3
						l12.3,7.1c1.4,0.8,3.7,0.8,5.2,0l14.7-8.5C442.5,596.2,442.5,594.9,441.1,594.1z M464.8,580.4l-12.3-7.1
						c-1.4-0.8-3.7-0.8-5.2,0l-14.7,8.5c-1.4,0.8-1.4,2.2,0,3l12.3,7.1c1.4,0.8,3.7,0.8,5.2,0l14.7-8.5
						C466.2,582.6,466.2,581.2,464.8,580.4z M488.4,566.8l-12.3-7.1c-1.4-0.8-3.7-0.8-5.2,0l-14.7,8.5c-1.4,0.8-1.4,2.2,0,3
						l12.3,7.1c1.4,0.8,3.7,0.8,5.2,0l14.7-8.5C489.9,568.9,489.9,567.6,488.4,566.8z M512.1,553.1l-12.3-7.1
						c-1.4-0.8-3.7-0.8-5.2,0l-14.7,8.5c-1.4,0.8-1.4,2.2,0,3l12.3,7.1c1.4,0.8,3.7,0.8,5.2,0l14.7-8.5
						C513.5,555.2,513.5,553.9,512.1,553.1z M484,618.9l-12.3-7.1c-1.4-0.8-3.7-0.8-5.2,0l-14.7,8.5c-1.4,0.8-1.4,2.2,0,3l12.3,7.1
						c1.4,0.8,3.7,0.8,5.2,0l14.7-8.5C485.4,621,485.4,619.7,484,618.9z M507.7,605.2l-12.3-7.1c-1.4-0.8-3.7-0.8-5.2,0l-14.7,8.5
						c-1.4,0.8-1.4,2.2,0,3l12.3,7.1c1.4,0.8,3.7,0.8,5.2,0l14.7-8.5C509.1,607.3,509.1,606,507.7,605.2z M531.3,591.5l-12.3-7.1
						c-1.4-0.8-3.7-0.8-5.2,0l-14.7,8.5c-1.4,0.8-1.4,2.2,0,3l12.3,7.1c1.4,0.8,3.7,0.8,5.2,0l14.7-8.5
						C532.8,593.7,532.8,592.4,531.3,591.5z M555,577.9l-12.3-7.1c-1.4-0.8-3.7-0.8-5.2,0l-14.7,8.5c-1.4,0.8-1.4,2.2,0,3l12.3,7.1
						c1.4,0.8,3.7,0.8,5.2,0l14.7-8.5C556.4,580,556.4,578.7,555,577.9z M704.5,491.6l-12.3-7.1c-1.4-0.8-3.7-0.8-5.2,0l-22.3,12.9
						c-1.4,0.8-1.4,2.2,0,3l12.3,7.1c1.4,0.8,3.7,0.8,5.2,0l22.3-12.9C705.9,493.7,705.9,492.4,704.5,491.6z M535.8,539.4l-12.3-7.1
						c-1.4-0.8-3.7-0.8-5.2,0l-14.7,8.5c-1.4,0.8-1.4,2.2,0,3l12.3,7.1c1.4,0.8,3.7,0.8,5.2,0l14.7-8.5
						C537.2,541.6,537.2,540.3,535.8,539.4z M559.4,525.8l-12.3-7.1c-1.4-0.8-3.7-0.8-5.2,0l-14.7,8.5c-1.4,0.8-1.4,2.2,0,3
						l12.3,7.1c1.4,0.8,3.7,0.8,5.2,0l14.7-8.5C560.8,527.9,560.8,526.6,559.4,525.8z M583.1,512.1l-12.3-7.1
						c-1.4-0.8-3.7-0.8-5.2,0l-14.7,8.5c-1.4,0.8-1.4,2.2,0,3l12.3,7.1c1.4,0.8,3.7,0.8,5.2,0l14.7-8.5
						C584.5,514.3,584.5,512.9,583.1,512.1z M606.7,498.4l-12.3-7.1c-1.4-0.8-3.7-0.8-5.2,0l-14.7,8.5c-1.4,0.8-1.4,2.2,0,3
						l12.3,7.1c1.4,0.8,3.7,0.8,5.2,0l14.7-8.5C608.2,500.6,608.2,499.3,606.7,498.4z M630.4,484.8l-12.3-7.1
						c-1.4-0.8-3.7-0.8-5.2,0l-14.7,8.5c-1.4,0.8-1.4,2.2,0,3l12.3,7.1c1.4,0.8,3.7,0.8,5.2,0l14.7-8.5
						C631.8,486.9,631.8,485.6,630.4,484.8z M661.7,466.7l-12.3-7.1c-1.4-0.8-3.7-0.8-5.2,0l-22.3,12.9c-1.4,0.8-1.4,2.2,0,3
						l12.3,7.1c1.4,0.8,3.7,0.8,5.2,0l22.3-12.9C663.1,468.9,663.1,467.5,661.7,466.7z M470.8,602l-12.3-7.1c-1.4-0.8-3.7-0.8-5.2,0
						L431,607.8c-1.4,0.8-1.4,2.2,0,3l12.3,7.1c1.4,0.8,3.7,0.8,5.2,0l22.3-12.9C472.2,604.2,472.2,602.9,470.8,602z M494.4,588.4
						l-12.3-7.1c-1.4-0.8-3.7-0.8-5.2,0l-14.7,8.5c-1.4,0.8-1.4,2.2,0,3l12.3,7.1c1.4,0.8,3.7,0.8,5.2,0l14.7-8.5
						C495.9,590.5,495.9,589.2,494.4,588.4z M518.1,574.7l-12.3-7.1c-1.4-0.8-3.7-0.8-5.2,0l-14.7,8.5c-1.4,0.8-1.4,2.2,0,3
						l12.3,7.1c1.4,0.8,3.7,0.8,5.2,0l14.7-8.5C519.5,576.9,519.5,575.5,518.1,574.7z M541.8,561l-12.3-7.1c-1.4-0.8-3.7-0.8-5.2,0
						l-14.7,8.5c-1.4,0.8-1.4,2.2,0,3l12.3,7.1c1.4,0.8,3.7,0.8,5.2,0l14.7-8.5C543.2,563.2,543.2,561.9,541.8,561z M565.4,547.4
						l-12.3-7.1c-1.4-0.8-3.7-0.8-5.2,0l-14.7,8.5c-1.4,0.8-1.4,2.2,0,3l12.3,7.1c1.4,0.8,3.7,0.8,5.2,0l14.7-8.5
						C566.9,549.5,566.9,548.2,565.4,547.4z M673.7,509.6l-12.3-7.1c-1.4-0.8-3.7-0.8-5.2,0l-109.6,63.3c-1.4,0.8-1.4,2.2,0,3
						l12.3,7.1c1.4,0.8,3.7,0.8,5.2,0l109.6-63.3C675.1,511.7,675.1,510.4,673.7,509.6z M589.1,533.7l-12.3-7.1
						c-1.4-0.8-3.7-0.8-5.2,0l-14.7,8.5c-1.4,0.8-1.4,2.2,0,3l12.3,7.1c1.4,0.8,3.7,0.8,5.2,0l14.7-8.5
						C590.5,535.9,590.5,534.5,589.1,533.7z M612.8,520.1l-12.3-7.1c-1.4-0.8-3.7-0.8-5.2,0l-14.7,8.5c-1.4,0.8-1.4,2.2,0,3
						l12.3,7.1c1.4,0.8,3.7,0.8,5.2,0l14.7-8.5C614.2,522.2,614.2,520.9,612.8,520.1z M636.4,506.4l-12.3-7.1
						c-1.4-0.8-3.7-0.8-5.2,0l-14.7,8.5c-1.4,0.8-1.4,2.2,0,3l12.3,7.1c1.4,0.8,3.7,0.8,5.2,0l14.7-8.5
						C637.8,508.6,637.8,507.2,636.4,506.4z M660.1,492.7l-12.3-7.1c-1.4-0.8-3.7-0.8-5.2,0l-14.7,8.5c-1.4,0.8-1.4,2.2,0,3
						l12.3,7.1c1.4,0.8,3.7,0.8,5.2,0l14.7-8.5C661.5,494.9,661.5,493.6,660.1,492.7z M683.7,479.1l-12.3-7.1
						c-1.4-0.8-3.7-0.8-5.2,0l-14.7,8.5c-1.4,0.8-1.4,2.2,0,3l12.3,7.1c1.4,0.8,3.7,0.8,5.2,0l14.7-8.5
						C685.2,481.2,685.2,479.9,683.7,479.1z M642.8,428.1l-12.3-7.1c-1.4-0.8-3.7-0.8-5.2,0l-14.7,8.5c-1.4,0.8-1.4,2.2,0,3
						l12.3,7.1c1.4,0.8,3.7,0.8,5.2,0l14.7-8.5C644.2,430.3,644.2,428.9,642.8,428.1z M666.5,414.5l-12.3-7.1
						c-1.4-0.8-3.7-0.8-5.2,0l-14.7,8.5c-1.4,0.8-1.4,2.2,0,3l12.3,7.1c1.4,0.8,3.7,0.8,5.2,0l14.7-8.5
						C667.9,416.6,667.9,415.3,666.5,414.5z M690.1,400.8l-12.3-7.1c-1.4-0.8-3.7-0.8-5.2,0l-14.7,8.5c-1.4,0.8-1.4,2.2,0,3
						l12.3,7.1c1.4,0.8,3.7,0.8,5.2,0l14.7-8.5C691.6,403,691.6,401.6,690.1,400.8z M711.7,413.3l-12.3-7.1c-1.4-0.8-3.7-0.8-5.2,0
						l-14.7,8.5c-1.4,0.8-1.4,2.2,0,3l12.3,7.1c1.4,0.8,3.7,0.8,5.2,0l14.7-8.5C713.1,415.4,713.1,414.1,711.7,413.3z"/>
				</g>
				<path class="st11" d="M775,565.6l-108.7,62.8c-2.4,1.4-6.4,1.4-8.8,0l-72.1-41.6c-2.4-1.4-2.4-3.7,0-5.1l108.7-62.8
					c2.4-1.4,6.4-1.4,8.8,0l72.1,41.6C777.4,561.9,777.4,564.2,775,565.6z"/>
				<path class="st12" d="M585.3,583l108.7-62.8c2.4-1.4,6.4-1.4,8.8,0l72.1,41.6c0.9,0.5,1.5,1.2,1.7,1.9c0.4-1.1-0.2-2.3-1.7-3.2
					l-72.1-41.6c-2.4-1.4-6.4-1.4-8.8,0l-108.7,62.8c-1.5,0.9-2.1,2.1-1.7,3.2C583.8,584.2,584.4,583.5,585.3,583z"/>
				<path class="st13" d="M657.4,384.2L349.4,562l-0.5,0.3l10.5,6.1l307.9-177.8l0.5-0.3L657.4,384.2z M359.4,567.5l-9.2-5.3
					l307.1-177.3l9.2,5.3L359.4,567.5z"/>
				<g>
					<path class="st9" d="M692.1,430.2l-16.2-9.4c-1.8-1-4.6-1-6.4,0l-37.1,21.4c-1,0.6-1.4,1.3-1.2,2.1c0,0.2,0,0.3,0,0.5
						c0,0.2,0,0.3,0,0.5c-0.1,0.8,0.2,1.5,1.2,2.1l32.4,18.7c1.8,1,4.6,1,6.4,0l61.6-35.6c1-0.6,1.4-1.3,1.2-2.1c0-0.2,0-0.3,0-0.5
						c0-0.2,0-0.3,0-0.5c0.1-0.8-0.2-1.5-1.2-2.1l-12-7c-1.2-0.7-3.1-0.7-4.3,0l-20.7,11.8C694.7,430.8,693.1,430.8,692.1,430.2z"/>
					<path class="st10" d="M732.7,424.8l-12-7c-1.2-0.7-3.1-0.7-4.3,0l-20.7,11.8c-1,0.6-2.6,0.6-3.6,0l-16.2-9.4
						c-1.8-1-4.6-1-6.4,0l-37.1,21.4c-1.8,1-1.8,2.7,0,3.7l32.4,18.7c1.8,1,4.6,1,6.4,0l61.6-35.6
						C734.4,427.4,734.4,425.8,732.7,424.8z"/>
				</g>
			</g>
			<g>
				<g>
					<defs>
						<path id="SVGID_5_" d="M498.1,668.3l12.7,7.3c1.5,0.8,2.7,0.3,2.7-1.1c0-1.5-1.2-3.4-2.7-4.2l-12.7-7.3
							c-1.5-0.8-2.7-0.3-2.7,1.1C495.4,665.6,496.6,667.5,498.1,668.3z"/>
					</defs>
					<use xlink:href="#SVGID_5_"  style="overflow:visible;fill:#171A22;"/>
					<clipPath id="SVGID_6_">
						<use xlink:href="#SVGID_5_"  style="overflow:visible;"/>
					</clipPath>
					<path class="st14" d="M509.3,673.9l1.8,1l6.3-3.6l-1.8-1L509.3,673.9z M505.4,671.7l1.8,1l6.3-3.6l-1.8-1L505.4,671.7z
						 M501.6,669.4l1.8,1l6.3-3.6l-1.8-1L501.6,669.4z M497.7,667.2l1.8,1l6.3-3.6l-1.8-1L497.7,667.2z"/>
				</g>
			</g>
			<polygon class="st9" points="366.1,591.1 350.4,582 350.4,578.6 366.1,587.7 			"/>
		</g>
		<path class="st15" d="M512.1,263.7c-3.7,2.1-6.9,5.1-9.7,8.5c-4.4-5.4-11.6-6.8-18.6-2.8c-0.7,0.4-1.4,0.9-2.1,1.4
			c-4.1-12.7-15.9-17.7-27.3-11.1c-10.7,6.2-17.4,20.5-16.1,33.6c-3,0.2-6.2,1.2-9.3,3c-12,6.9-19.1,23.5-16.6,37.9
			c-2.8,0.3-5.6,1.2-8.4,2.8c-11.9,6.9-18.8,23.8-15.4,37.8c3.4,14,15.9,19.8,27.9,12.9L527,324.2c14.2-8.2,22.4-28.3,18.3-45
			C541.1,262.5,526.3,255.6,512.1,263.7z"/>
		<path class="st16" d="M429.1,340l4.8,19.4l70.7-40.8l-4.8-19.5L429.1,340z M502.8,317.7l-67.8,39.2l-3.9-16.1l67.8-39.2
			L502.8,317.7z M482.4,314l2.7,10.9L436.2,353l-2.7-10.9L482.4,314z M431.6,327.7l5.4-3.1l0.3,1.3l-6.6,3.8l-3.7-15.1l1.2-0.7
			L431.6,327.7z M444.4,315.7l0.1,0.5c0.7,2.8,0.2,5.7-2.4,7.2c-2.6,1.5-4.2-0.1-4.9-3l-0.1-0.5c-0.7-2.8-0.2-5.7,2.4-7.2
			C442.1,311.2,443.7,312.8,444.4,315.7z M443.3,316.3c-0.6-2.3-1.7-3.4-3.4-2.4c-1.7,1-2.1,3-1.5,5.3l0.1,0.5
			c0.6,2.3,1.7,3.4,3.5,2.4c1.7-1,2.1-3,1.5-5.3L443.3,316.3z M453.2,313.4l0.8,2.8l-1,0.5l-0.5-1.3c-0.4,1.2-1.2,2.5-2.7,3.4
			c-1.6,0.9-2.8,0.3-3.2-1.4l0-0.2c-0.5-2.2,0.7-3.7,2.1-4.7l2.5-2l-0.1-0.3c-0.4-1.8-1.1-2.4-2.7-1.5c-1.6,0.9-1.7,2.3-1.4,3.6
			l-1.1,0.6l0-0.2c-0.4-1.5-0.3-3.7,2.3-5.2c2.4-1.4,3.5-0.3,4.1,2L453.2,313.4z M451.4,311.6l-2.4,1.9c-1.1,0.9-1.6,1.9-1.3,3.1
			l0,0.2c0.2,0.9,0.9,1.5,2.1,0.8c1.6-0.9,2.1-2.4,2.3-3.2L451.4,311.6z M462,308.3l0.8,2.8l-1,0.6l-0.5-1.3
			c-0.2,1.1-0.9,2.3-2.2,3.1c-2.4,1.4-3.9-0.3-4.6-3.2l-0.1-0.5c-0.7-2.8-0.3-5.6,2.1-7c1.2-0.7,2.1-0.5,2.8,0l-1.6-6.4l1.1-0.7
			L462,308.3z M459.7,304.2c-0.5-0.5-1.4-1-2.6-0.3c-1.6,0.9-2,2.9-1.5,5.3l0.1,0.5c0.6,2.4,1.7,3.4,3.4,2.5c1.2-0.7,1.6-2,1.8-2.9
			L459.7,304.2z M461.8,297.3l1.5-0.9l-0.4-1.7l-1.5,0.9L461.8,297.3z M465,309.9l1.1-0.7l-2.5-10.2l-1.1,0.7L465,309.9z
			 M469.8,295.2c-1.5,0.9-2.2,2.1-2.5,3.3l-0.5-1.4l-1,0.5l0.8,2.8l1.8,7.3l1.1-0.7l-1.9-7.6c0.2-0.9,0.6-2.2,2-3
			c1.2-0.7,2.1-0.4,2.4,1.2l1.7,7l1.1-0.7l-1.8-7.2C472.8,295,471.6,294.2,469.8,295.2z M480.4,289.3l1-0.5l0.6,3l1.8,7.4
			c0.6,2.3,0,4.5-2.4,5.9c-2.5,1.4-3.8,0.2-4.3-1.9L477,303l1.1-0.6c0.5,1.9,1.3,2.5,3,1.6c1.7-1,2-2.3,1.6-4.2l-0.5-1.9
			c-0.3,1-0.9,2.1-2.1,2.8c-2.4,1.4-3.9-0.2-4.5-2.8l-0.1-0.4c-0.6-2.6-0.2-5.3,2.2-6.7c1.3-0.8,2.3-0.5,3,0.1L480.4,289.3z
			 M480.8,292.1c-0.5-0.5-1.4-1-2.6-0.3c-1.6,0.9-2.1,2.8-1.5,4.9l0.1,0.4c0.5,2.1,1.7,3.1,3.3,2.1c1.2-0.7,1.6-2,1.8-2.8
			L480.8,292.1z M485.9,297.9l1.5-0.9l-0.4-1.7l-1.5,0.9L485.9,297.9z M489.5,295.8l1.5-0.9l-0.4-1.7l-1.5,0.9L489.5,295.8z
			 M492.6,292l0.4,1.7l1.5-0.9l-0.4-1.7L492.6,292z"/>
		<g>
			<g>
				<path class="st17" d="M1101.7,427.2l-196-113.5c-2.6-1.5-6.1-2.3-9.6-2.3c0,0-12.5,0-12.6,0c-3.5,0-6.9,0.8-9.6,2.3l-137.3,79.1
					c-5.4,3.1-5.4,8.1-0.1,11.2l196,113.5c2.5,1.5,5.7,2.2,9,2.3c0.2,0,12.8,0,13,0c3.5,0,7-0.8,9.7-2.3l137.3-79.1
					C1107,435.3,1107,430.3,1101.7,427.2z"/>
				<g>
					<g>
						<path class="st6" d="M745,395.5l204.8,118.7l145.7-84.1c3.7-2.2,10.5-4.9,6.8-7.1L898.9,305.5c-1.5-0.9-12-0.6-13.5,0.3
							l-141.9,82C740.5,390.7,743.1,394.4,745,395.5z"/>
						<linearGradient id="SVGID_7_" gradientUnits="userSpaceOnUse" x1="969.3599" y1="455.3143" x2="940.7931" y2="455.3143">
							<stop  offset="0" style="stop-color:#CB89F0"/>
							<stop  offset="1" style="stop-color:#8B3DCE"/>
						</linearGradient>
						<path class="st18" d="M1106.4,427.9c0,2-1.3,4.1-4,5.6L965,512.7c-5.4,3.1-14,3.1-19.3,0L745,396.5c-2.6-1.5-4-3.5-4-5.6
							l0,4.7c0,2,1.3,4,4,5.6l200.7,116.1c5.3,3.1,14,3.1,19.3,0l137.3-79.1c2.7-1.6,4-3.6,4-5.6L1106.4,427.9z"/>
						<path class="st19" d="M1102.4,422.4L901.7,306.2c-5.3-3.1-14-3.1-19.3,0l-137.3,79.1c-5.4,3.1-5.4,8.1-0.1,11.2l200.7,116.1
							c5.3,3.1,14,3.1,19.3,0l137.3-79.1C1107.7,430.5,1107.7,425.5,1102.4,422.4z M943.6,509.1L745,394.2c-2.5-1.4-2.5-5,0-6.4
							l138-79.5c5.7-3.3,12.8-3.3,18.5,0l195.1,112.9c0.8,0.4,0.8,1.5,0,2l-149.3,86C946.1,509.8,944.7,509.8,943.6,509.1z"/>
					</g>
					<g>
						<path class="st3" d="M774,415.6l-15.3-8.8c-0.7-0.4-1.3-0.1-1.3,0.8l0,0.4c0,0.8,0.6,1.8,1.3,2.3l15.3,8.8
							c0.7,0.4,1.3,0.1,1.3-0.8l0-0.4C775.3,417,774.7,416,774,415.6z"/>
						<linearGradient id="SVGID_8_" gradientUnits="userSpaceOnUse" x1="762.5891" y1="403.9463" x2="772.2626" y2="420.7012">
							<stop  offset="0.6207" style="stop-color:#FFBFFF"/>
							<stop  offset="0.8638" style="stop-color:#E09CFF"/>
							<stop  offset="1" style="stop-color:#CB89F0"/>
						</linearGradient>
						<path class="st20" d="M776.2,416.6c-0.1-0.3-0.3-0.6-0.4-0.8c-0.2-0.3-0.5-0.5-0.7-0.7l-15.3-8.8c-0.4-0.2-0.7-0.2-0.9-0.1
							l-1,0.5c0.2-0.1,0.6-0.1,0.9,0.1l15.3,8.8c0.3,0.2,0.5,0.4,0.7,0.7c0.2,0.3,0.3,0.5,0.4,0.8c0.1,0.2,0.1,0.5,0.1,0.7l0,0.4
							c0,0.4-0.1,0.7-0.4,0.9l1-0.5c0.2-0.1,0.4-0.4,0.4-0.9v-0.4C776.3,417.1,776.2,416.8,776.2,416.6z"/>
						<linearGradient id="SVGID_9_" gradientUnits="userSpaceOnUse" x1="783.9532" y1="418.5764" x2="789.6071" y2="428.3692">
							<stop  offset="0.6207" style="stop-color:#FFBFFF"/>
							<stop  offset="0.8638" style="stop-color:#E09CFF"/>
							<stop  offset="1" style="stop-color:#CB89F0"/>
						</linearGradient>
						<path class="st21" d="M791.5,425.4c-0.1-0.3-0.3-0.6-0.4-0.8c-0.2-0.3-0.5-0.5-0.7-0.7l-7.2-4.2c-0.4-0.2-0.7-0.2-0.9-0.1
							l-1,0.5c0.2-0.1,0.6-0.1,0.9,0.1l7.2,4.2c0.3,0.2,0.5,0.4,0.7,0.7c0.2,0.3,0.3,0.5,0.4,0.8c0.1,0.2,0.1,0.5,0.1,0.7l0,0.4
							c0,0.4-0.1,0.7-0.4,0.9l1-0.5c0.2-0.1,0.4-0.4,0.4-0.9l0-0.4C791.6,425.9,791.6,425.7,791.5,425.4z"/>
						<path class="st3" d="M789.4,424.4l-7.2-4.2c-0.7-0.4-1.3-0.1-1.3,0.8l0,0.4c0,0.8,0.6,1.8,1.3,2.3l7.2,4.2
							c0.7,0.4,1.3,0.1,1.3-0.8l0-0.4C790.7,425.9,790.1,424.9,789.4,424.4z"/>
					</g>
					<polygon class="st19" points="847.4,333.3 797.7,362 790,361.3 846.2,328.9 					"/>
					<path class="st22" d="M1036.6,466.2l-2.6-1.5c-1.3-0.7-3.5-0.7-4.9,0.2l-9.2,5.3c-0.5,0.3-0.9,0.6-1.1,1
						c-0.5,0.9-0.2,1.8,0.8,2.4l2.6,1.5c1.3,0.7,3.5,0.7,4.9-0.2l9.2-5.3c0.5-0.3,0.9-0.6,1.1-1
						C1037.9,467.7,1037.6,466.7,1036.6,466.2z"/>
					<path class="st19" d="M1036.6,467l-2.6-1.5c-1.3-0.7-3.5-0.7-4.9,0.2l-9.2,5.3c-0.5,0.3-0.9,0.6-1.1,1
						c-0.1,0.1-0.1,0.3-0.2,0.4c0.1,0.4,0.4,0.8,0.9,1.1l2.6,1.5c1.3,0.7,3.5,0.7,4.9-0.2l9.2-5.3c0.5-0.3,0.9-0.6,1.1-1
						c0.1-0.1,0.1-0.3,0.2-0.4C1037.4,467.7,1037.1,467.3,1036.6,467z"/>
					<g>
						<g>
							<path class="st23" d="M821.9,345.9c-0.8,0.5-2.2,0.5-3,0c-0.8-0.5-0.8-1.3,0-1.7c0.8-0.5,2.2-0.5,3,0
								S822.8,345.5,821.9,345.9z"/>
						</g>
						<g>
							<path class="st24" d="M819.4,345.7c0.6,0.3,1.6,0.3,2.2-0.1c0.6-0.4,0.6-0.9,0-1.3c-0.6-0.3-1.6-0.3-2.2,0.1
								C818.7,344.8,818.8,345.4,819.4,345.7z"/>
							<path class="st24" d="M819.8,345.4c0.3,0.2,0.9,0.2,1.2,0c0.3-0.2,0.3-0.5,0-0.7c-0.3-0.2-0.9-0.2-1.2,0
								C819.5,344.9,819.5,345.2,819.8,345.4z"/>
							<path class="st25" d="M820.2,345.2c0.1,0.1,0.3,0.1,0.4,0s0.1-0.2,0-0.3c-0.1-0.1-0.3-0.1-0.4,0
								C820.1,345,820.1,345.1,820.2,345.2z"/>
						</g>
					</g>
					<path class="st23" d="M841.3,332.4l-9.6,5.5c-0.6,0.3-0.7,0.9-0.1,1.2c0.5,0.3,1.4,0.3,2-0.1l9.6-5.5c0.6-0.3,0.7-0.9,0.1-1.2
						C842.8,332,841.9,332,841.3,332.4z"/>
					<path class="st23" d="M806.8,352.3l-9.6,5.5c-0.6,0.3-0.7,0.9-0.1,1.2s1.4,0.3,2-0.1l9.6-5.5c0.6-0.3,0.7-0.9,0.1-1.2
						C808.2,351.9,807.4,352,806.8,352.3z"/>
					<g>
						<g>
							<defs>
								<path id="SVGID_10_" d="M1035.6,475.5l-5.2,3c-0.6,0.4-1.1,0.1-1.1-0.5c0-0.6,0.5-1.4,1.1-1.7l5.2-3
									c0.6-0.4,1.1-0.1,1.1,0.5C1036.7,474.4,1036.2,475.1,1035.6,475.5z"/>
							</defs>
							<use xlink:href="#SVGID_10_"  style="overflow:visible;fill:#2D2B2A;"/>
							<clipPath id="SVGID_11_">
								<use xlink:href="#SVGID_10_"  style="overflow:visible;"/>
							</clipPath>
							<path class="st26" d="M1028.3,476.3l-0.7,0.4l2.6,1.5l0.7-0.4L1028.3,476.3z M1029.9,475.4l-0.7,0.4l2.6,1.5l0.7-0.4
								L1029.9,475.4z M1031.5,474.5l-0.7,0.4l2.6,1.5l0.7-0.4L1031.5,474.5z M1033.1,473.5l-0.7,0.4l2.6,1.5l0.7-0.4L1033.1,473.5z
								"/>
						</g>
					</g>
				</g>
			</g>
			<g>
				<g>
					<path class="st27" d="M938.8,371.6c-2.6,1.5-4.5,3.3-5.8,5.2c-6.3-1.4-13.7-0.7-18.7,2.2c-0.5,0.3-1,0.6-1.4,0.9
						c-8.9-4.4-22.1-4.3-30.2,0.3c-7.7,4.4-8.2,11.4-1.8,16.5c-2.8,0.6-5.4,1.6-7.6,2.9c-8.6,4.9-8.7,13-0.6,18.3
						c-2.5,0.6-4.8,1.5-6.8,2.6c-8.5,4.9-8.3,13,0.6,18.1c8.9,5.1,22.9,5.2,31.5,0.3l78.9-45.4c10.1-5.8,9.8-15.5-0.7-21.5
						C965.7,365.9,948.9,365.8,938.8,371.6z"/>
					<g>
						<path class="st16" d="M890.8,417.3l12.3,7l50.5-29.1l-12.3-7.1L890.8,417.3z M951.5,395.2l-48.4,28l-10.1-5.8l48.4-28
							L951.5,395.2z"/>
						<polygon class="st16" points="930.7,397.3 937.6,401.2 902.7,421.4 895.8,417.4 						"/>
					</g>
					<path class="st16" d="M888.3,411.9l3.9-2.2l0.8,0.5l-4.7,2.7l-9.5-5.5l0.8-0.5L888.3,411.9z M895.5,404.7l0.3,0.2
						c1.8,1,2.4,2.3,0.6,3.4c-1.8,1.1-4,0.7-5.8-0.3l-0.3-0.2c-1.8-1-2.4-2.3-0.6-3.4C891.5,403.3,893.7,403.7,895.5,404.7z
						 M894.7,405.2c-1.5-0.8-3-1.1-4.2-0.4c-1.2,0.7-0.8,1.6,0.7,2.4l0.3,0.2c1.5,0.8,3,1.1,4.2,0.4c1.2-0.7,0.8-1.6-0.7-2.4
						L894.7,405.2z M902.9,402.3l1.9,1l-0.7,0.4l-1-0.4c0.1,0.6-0.1,1.2-1.2,1.9c-1.1,0.7-2.5,0.6-3.6,0c-1.5-0.9-0.9-1.7-0.1-2.4
						l1.6-1.3l-0.2-0.1c-1.1-0.6-2-0.8-3.1-0.1c-1.2,0.7-0.7,1.2,0.1,1.7l-0.8,0.5c-1.1-0.6-1.9-1.5,0-2.6c1.7-1,3.2-0.7,4.7,0.1
						L902.9,402.3z M900.5,401.8l-1.5,1.2c-0.7,0.5-0.7,1.1,0,1.5c0.7,0.4,1.6,0.5,2.4,0c1.1-0.7,1-1.3,0.9-1.7L900.5,401.8z
						 M909.2,398.6l1.9,1l-0.7,0.4l-1-0.4c0.2,0.5,0.1,1.1-0.8,1.6c-1.7,1-3.8,0.6-5.6-0.5l-0.3-0.2c-1.8-1-2.5-2.2-0.8-3.2
						c0.9-0.5,1.8-0.6,2.6-0.5l-4-2.3l0.8-0.5L909.2,398.6z M905.4,397.4c-0.7-0.1-1.7-0.1-2.6,0.3c-1.2,0.7-0.8,1.5,0.7,2.4
						l0.3,0.2c1.5,0.9,3,1.1,4.2,0.4c0.8-0.5,0.8-1.1,0.6-1.5L905.4,397.4z M904.6,394.2l1.1-0.6l-1.1-0.6l-1.1,0.6L904.6,394.2z
						 M912.7,398.7l0.8-0.5l-6.5-3.7l-0.8,0.5L912.7,398.7z M911.4,391.9c-1.1,0.6-1.2,1.3-1,1.8l-1-0.5l-0.7,0.4l1.9,1l4.6,2.7
						l0.8-0.5l-4.8-2.8c-0.2-0.4-0.3-1,0.7-1.6c0.8-0.5,1.8-0.5,2.8,0l4.4,2.5l0.8-0.5l-4.5-2.6
						C914.1,391.3,912.6,391.2,911.4,391.9z M919,387.6l0.7-0.4l1.8,1.1l4.7,2.7c1.5,0.8,1.8,1.8,0.1,2.8c-1.8,1-3.5,0.8-4.8,0
						l-0.2-0.1l0.8-0.5c1.2,0.7,2.3,0.8,3.4,0.1c1.2-0.7,1-1.3-0.2-2l-1.2-0.7c0.1,0.5,0,1-0.9,1.5c-1.7,1-3.7,0.6-5.4-0.3l-0.3-0.2
						c-1.6-0.9-2.3-2.1-0.6-3.1c1-0.5,2-0.6,2.9-0.5L919,387.6z M920.5,388.7c-0.7-0.1-1.7-0.2-2.6,0.3c-1.2,0.7-0.8,1.5,0.5,2.3
						l0.3,0.2c1.4,0.8,2.8,1,4,0.3c0.9-0.5,0.8-1.1,0.6-1.5L920.5,388.7z M927.6,390.1l1.1-0.6l-1.1-0.6l-1.1,0.6L927.6,390.1z
						 M930.2,388.7l1.1-0.6l-1.1-0.6l-1.1,0.6L930.2,388.7z M931.6,386.6l1.1,0.6l1.1-0.6l-1.1-0.6L931.6,386.6z"/>
				</g>
			</g>
		</g>
		<path class="st0" d="M440.6,685.4l-136.3-78.6c-3.6-2.1-8.2-3.1-12.9-3.1l-16.3,0c-4.9-0.1-9.9,1-13.6,3.1l-72.6,41.9
			c-7.3,4.2-7.3,11-0.1,15.2l136.3,78.6c3.7,2.1,8.5,3.2,13.4,3.1l16.5,0c4.7,0,9.4-1.1,13-3.1l72.6-41.9
			C447.8,696.4,447.9,689.6,440.6,685.4z"/>
		<path class="st0" d="M179.3,670.5c4.8,1.2,99.9,59.7,120.7,73.3c15.3,10,22.2,15.2,26.5,18.8c0,0,0.3,0.3,0.5,0.5l3.9,3.1
			c-0.1-0.1-0.3-0.1-0.4-0.1c0.1,0,0.3,0,0.4,0.1c0.4,0.3,0.5,0.7,0.6,1.1c1.1,1,3.1,2.9,3.5,3.3c0.4,0.4,0.7,0.6,0.8,1
			c0.1,0.6-0.3,0.8-0.3,0.8c-0.4,0.2-0.8,0.1-1.4-0.1c-0.6-0.2-3.3-1-4.7-1.5c-0.5,0.2-0.9,0.1-1.2,0.1c-0.4-0.2-0.4-0.2,0,0
			l-4.7-1.9c0,0-0.6-0.2-0.7-0.2c-0.8-0.3-1.7-0.6-2.8-1.1c-3.7-1.5-9.8-4.2-21.7-10.4c-11.2-5.8-27.7-14.8-52.2-28.7
			c-2.4-1.3-79.6-47.1-82-48.5C159.1,677.1,173.7,667.3,179.3,670.5z"/>
		<g>
			<g>
				<g>
					<path class="st6" d="M430.1,689.2l-79.6,45.9c-1.3,0.7-2.8,0.7-4.1,0l-149-86c-2.7-1.6-6.1-5.4-2-10.1l73.9-43.2
						c4.9-2.9,12-4.8,17.6-4c2.5,0.3,5.6,0.9,7,1.8l139.6,80.4C439.6,677.5,436,685.8,430.1,689.2z"/>
					<linearGradient id="SVGID_12_" gradientUnits="userSpaceOnUse" x1="344.7822" y1="694.0269" x2="370.4906" y2="694.0269">
						<stop  offset="0" style="stop-color:#8B3DCE"/>
						<stop  offset="1" style="stop-color:#CB89F0"/>
					</linearGradient>
					<path class="st28" d="M446.8,685c0,2.8-1.8,5.5-5.5,7.7l-72.6,41.9c-7.3,4.2-19,4.2-26.2,0c0,0-144.2-83.2-144.2-83.2
						c-3.6-2.1-5.4-4.8-5.4-7.5l0,6.5c0,2.7,1.8,5.5,5.4,7.5l144.2,83.2c7.2,4.2,19,4.2,26.2,0c0,0,72.6-41.9,72.6-41.9
						c3.7-2.1,5.5-4.9,5.5-7.7L446.8,685z"/>
					<path class="st5" d="M441.4,677.4l-144.2-83.2c-7.2-4.2-19-4.2-26.2,0l-72.6,41.9c-7.3,4.2-7.3,11-0.1,15.2l144.2,83.2
						c7.2,4.2,19,4.2,26.2,0l72.6-41.9C448.6,688.4,448.6,681.6,441.4,677.4z M340.2,730.6L197.1,648c-3.4-2-3.4-6.9,0-8.9l16.6-9.6
						L227,628l30.2-17.4l5.1-9.1l10.2-5.9c7.3-4.2,16.3-4.2,23.6,0l138.1,79.7c1.2,0.7,1.2,2.4,0,3.1l-90.5,52.3
						C342.7,731.2,341.3,731.2,340.2,730.6z"/>
					<path class="st29" d="M408,704.1l-3.3-1.9c-1.7-1-4.5-0.9-6.4,0.2l-11.9,6.9c-0.6,0.4-1.1,0.8-1.4,1.3c-0.6,1.1-0.2,2.4,1,3.1
						l3.3,1.9c1.7,1,4.5,0.9,6.4-0.2l11.9-6.9c0.6-0.4,1.1-0.8,1.4-1.3C409.6,706,409.2,704.8,408,704.1z"/>
					<g class="st30">
						<path class="st5" d="M408,705.3l-3.3-1.9c-1.7-1-4.5-0.9-6.4,0.2l-11.9,6.9c-0.6,0.4-1.1,0.8-1.4,1.3
							c-0.1,0.2-0.1,0.3-0.2,0.5c0.2,0.5,0.6,1,1.2,1.3l3.3,1.9c1.7,1,4.5,0.9,6.4-0.2l11.9-6.9c0.6-0.4,1.1-0.8,1.4-1.3
							c0.1-0.2,0.1-0.3,0.2-0.5C409,706.1,408.6,705.6,408,705.3z"/>
					</g>
					<path class="st31" d="M245.7,611.7l-14.7,8.5c-0.7,0.4-0.8,1-0.2,1.4c0.6,0.4,1.7,0.3,2.4-0.1l14.7-8.5c0.7-0.4,0.8-1,0.2-1.4
						C247.5,611.3,246.4,611.3,245.7,611.7z"/>
					<g>
						<g>
							<linearGradient id="SVGID_13_" gradientUnits="userSpaceOnUse" x1="212.4973" y1="658.4842" x2="221.0232" y2="673.2514">
								<stop  offset="0.6207" style="stop-color:#FFBFFF"/>
								<stop  offset="0.8638" style="stop-color:#E09CFF"/>
								<stop  offset="1" style="stop-color:#CB89F0"/>
							</linearGradient>
							<path class="st32" d="M224.1,669.1c-0.1-0.4-0.3-0.7-0.5-1c-0.3-0.4-0.6-0.7-0.9-0.9l-12-6.9c-0.4-0.3-0.9-0.3-1.1-0.1
								l-1.2,0.7c0.3-0.2,0.7-0.1,1.1,0.1l12,6.9c0.3,0.2,0.7,0.5,0.9,0.9c0.2,0.3,0.4,0.7,0.5,1c0.1,0.3,0.2,0.6,0.2,0.9v0.5
								c0,0.5-0.2,0.9-0.5,1.1l1.2-0.7c0.3-0.2,0.5-0.5,0.5-1.1v-0.5C224.3,669.8,224.2,669.5,224.1,669.1z"/>
							<path class="st3" d="M221.5,667.9l-12-6.9c-0.9-0.5-1.6-0.1-1.6,1v0.5c0,1,0.7,2.3,1.6,2.8l12,6.9c0.9,0.5,1.6,0.1,1.6-1
								v-0.5C223.1,669.7,222.4,668.4,221.5,667.9z"/>
						</g>
						<g>
							<linearGradient id="SVGID_14_" gradientUnits="userSpaceOnUse" x1="230.7847" y1="669.0424" x2="239.3107" y2="683.8098">
								<stop  offset="0.6207" style="stop-color:#FFBFFF"/>
								<stop  offset="0.8638" style="stop-color:#E09CFF"/>
								<stop  offset="1" style="stop-color:#CB89F0"/>
							</linearGradient>
							<path class="st33" d="M242.4,679.7c-0.1-0.4-0.3-0.7-0.5-1c-0.3-0.4-0.6-0.7-0.9-0.9l-12-6.9c-0.4-0.3-0.9-0.3-1.1-0.1
								l-1.2,0.7c0.3-0.2,0.7-0.1,1.1,0.1l12,6.9c0.3,0.2,0.7,0.5,0.9,0.9c0.2,0.3,0.4,0.7,0.5,1c0.1,0.3,0.2,0.6,0.2,0.9v0.5
								c0,0.5-0.2,0.9-0.5,1.1l1.2-0.7c0.3-0.2,0.5-0.5,0.5-1.1v-0.5C242.6,680.3,242.5,680,242.4,679.7z"/>
							<path class="st3" d="M239.8,678.5l-12-6.9c-0.9-0.5-1.6-0.1-1.6,1v0.5c0,1,0.7,2.3,1.6,2.8l12,6.9c0.9,0.5,1.6,0.1,1.6-1
								v-0.5C241.4,680.3,240.7,679,239.8,678.5z"/>
						</g>
					</g>
					<g>
						<g>
							<path class="st31" d="M225.3,626.3c-0.8,0.5-2.1,0.5-3,0c-0.8-0.5-0.8-1.2,0-1.7c0.8-0.5,2.1-0.5,3,0
								C226.1,625,226.1,625.8,225.3,626.3z"/>
						</g>
						<g>
							<path class="st34" d="M222.7,626.1c0.6,0.3,1.6,0.3,2.2-0.1s0.6-0.9,0-1.3c-0.6-0.3-1.6-0.3-2.2,0.1
								C222.1,625.2,222.1,625.7,222.7,626.1z"/>
							<path class="st34" d="M223.2,625.7c0.3,0.2,0.9,0.2,1.2,0c0.3-0.2,0.3-0.5,0-0.7c-0.3-0.2-0.9-0.2-1.2,0
								C222.9,625.2,222.9,625.5,223.2,625.7z"/>
							<path class="st35" d="M223.6,625.5c0.1,0.1,0.3,0.1,0.4,0c0.1-0.1,0.1-0.2,0-0.3c-0.1-0.1-0.3-0.1-0.4,0
								C223.4,625.3,223.4,625.4,223.6,625.5z"/>
						</g>
					</g>
					<g>
						<g>
							<defs>
								<path id="SVGID_15_" d="M407.6,717.4l-8.5,4.9c-1,0.6-1.8,0.2-1.8-0.8c0-1,0.8-2.3,1.8-2.8l8.5-4.9c1-0.6,1.8-0.2,1.8,0.8
									C409.4,715.5,408.5,716.8,407.6,717.4z"/>
							</defs>
							<use xlink:href="#SVGID_15_"  style="overflow:visible;fill:#313440;"/>
							<clipPath id="SVGID_16_">
								<use xlink:href="#SVGID_15_"  style="overflow:visible;"/>
							</clipPath>
							<path class="st36" d="M395.8,718.7l-1.2,0.7l4.2,2.4l1.2-0.7L395.8,718.7z M398.4,717.2l-1.2,0.7l4.2,2.4l1.2-0.7
								L398.4,717.2z M401,715.7l-1.2,0.7l4.2,2.4l1.2-0.7L401,715.7z M403.6,714.2l-1.2,0.7l4.2,2.4l1.2-0.7L403.6,714.2z"/>
						</g>
					</g>
				</g>
			</g>
			<g>
				<g>
					<polygon class="st16" points="420.6,673.9 337.8,721.8 225.5,657 308.4,609.2 					"/>
					<polygon class="st37" points="308.9,609.4 226,657.3 217.1,652.1 300,604.3 					"/>
				</g>
				<g>
					<polygon class="st16" points="420.6,655.3 337.8,703.2 225.5,638.4 308.4,590.5 					"/>
					<polygon class="st37" points="308.9,590.8 226,638.6 217.1,633.5 300,585.7 					"/>
				</g>
				<g>
					<g>
						<polygon class="st16" points="420.6,636.9 337.8,684.7 225.5,619.9 308.4,572.1 						"/>
						<polygon class="st38" points="308.9,572.3 226,620.2 217.1,615.1 300,567.2 						"/>
					</g>
					<path class="st39" d="M353.2,612.6l-7.4,4.3l-1-0.6l7.4-4.3L353.2,612.6z M353.5,615.8l-8.2,4.7l1,0.6l8.2-4.7L353.5,615.8z
						 M352.2,621.2l-6.4,3.7l1,0.6l6.4-3.7L352.2,621.2z M334.2,623.5l10.6-6.1l-1-0.6l-10.6,6.1L334.2,623.5z M344.3,621.2
						l-5.5,3.2l1,0.6l5.5-3.2L344.3,621.2z M320.6,631.4l12.7-7.3l-1-0.6l-12.7,7.3L320.6,631.4z M337.8,624.9l-12.5,7.2l1,0.6
						l12.5-7.2L337.8,624.9z M344.8,625.4l-7,4.1l1,0.6l7-4.1L344.8,625.4z M332.2,620.2l12.8-7.4l-1-0.6l-12.8,7.4L332.2,620.2z
						 M348.8,609.4l-3.8,2.2l1,0.6l3.8-2.2L348.8,609.4z M344.1,631.9l-5.7,3.3l1,0.6l5.7-3.3L344.1,631.9z M369,622.1l-8,4.6l1,0.6
						l8-4.6L369,622.1z M365.9,619.4l-7,4.1l1,0.6l7-4.1L365.9,619.4z M353.3,631.2l-10.6,6.1l1,0.6l10.6-6.1L353.3,631.2z
						 M343,642.8l5.7-3.3l-1-0.6l-5.7,3.3L343,642.8z M360,627.3l-5.7,3.3l1,0.6l5.7-3.3L360,627.3z M361.4,631l-12.8,7.4l1,0.6
						l12.8-7.4L361.4,631z M357.8,624l-12.8,7.4l1,0.6l12.8-7.4L357.8,624z M330.2,620.1l-5.7,3.3l1,0.6l5.7-3.3L330.2,620.1z
						 M338.4,636.4l-1-0.6l-7,4.1l1,0.6L338.4,636.4z M336.8,630.1l-16.2,9.4l1,0.6l16.2-9.4L336.8,630.1z M324.3,632.7l-16,9.2
						l1,0.6l16-9.2L324.3,632.7z M320.6,640.6l-1-0.6l-3.2,1.9l1,0.6L320.6,640.6z M354.6,651.2l-16.2,9.4l1,0.6l16.2-9.4
						L354.6,651.2z M358.6,654.5l-1-0.6l-12.5,7.2l1,0.6L358.6,654.5z M315.3,642.5l-14.4,8.3l1,0.6l14.4-8.3L315.3,642.5z
						 M328.2,666.4l1,0.6l9.2-5.3l-1-0.6L328.2,666.4z M333.1,669.3l12-6.9l-1-0.6l-12,6.9L333.1,669.3z M294.1,646.7l12-6.9l-1-0.6
						l-12,6.9L294.1,646.7z M313.2,650.9l-1-0.6l-5.9,3.4l1,0.6L313.2,650.9z M319.6,632l-1-0.6l-12.5,7.2l1,0.6L319.6,632z
						 M298,649l10.3-5.9l-1-0.6l-10.3,5.9L298,649z M317.5,628.6l7-4.1l-1-0.6l-7,4.1L317.5,628.6z M290.1,644.4l9.2-5.3l-1-0.6
						l-9.2,5.3L290.1,644.4z M300.3,638.6l16.2-9.4l-1-0.6l-16.2,9.4L300.3,638.6z M333,647.5l-19,11l1,0.6l19-11L333,647.5z
						 M374.2,623.7l-11.8,6.8l1,0.6l11.8-6.8L374.2,623.7z M373.3,646.1l10.6-6.1l-1-0.6l-10.6,6.1L373.3,646.1z M384.8,639.4
						l7.4-4.3l-1-0.6l-7.4,4.3L384.8,639.4z M385,634.7l3.8-2.2l-1-0.6l-3.8,2.2L385,634.7z M336.1,650.3L318,660.7l1,0.6l18.1-10.4
						L336.1,650.3z M383.5,631l4.8-2.8l-1-0.6l-4.8,2.8L383.5,631z M349.6,649.4l-25.6,14.8l1,0.6l25.6-14.8L349.6,649.4z
						 M337,671.6l10.3-5.9l-1-0.6L336,671L337,671.6z M348.3,665.1l16-9.2l-1-0.6l-16,9.2L348.3,665.1z M365.3,655.2l12.5-7.2
						l-1-0.6l-12.5,7.2L365.3,655.2z M378.8,647.4l5.5-3.2l-1-0.6l-5.5,3.2L378.8,647.4z M341.7,637.9l-12.7,7.3l1,0.6l12.7-7.3
						L341.7,637.9z M371.3,646.1l-12.7,7.3l1,0.6l12.7-7.3L371.3,646.1z M369.2,642.7l-5.7,3.3l1,0.6l5.7-3.3L369.2,642.7z
						 M363.6,647.1l-1-0.6l-7,4.1l1,0.6L363.6,647.1z M383,634.7l-12.8,7.4l1,0.6l12.8-7.4L383,634.7z M374.9,634.9l-10.6,6.1l1,0.6
						l10.6-6.1L374.9,634.9z M349.7,642.4l-12.7,7.3l1,0.6l12.7-7.3L349.7,642.4z M381.5,631l-5.7,3.3l1,0.6l5.7-3.3L381.5,631z
						 M329.4,640.4l-16.2,9.4l1,0.6l16.2-9.4L329.4,640.4z M363.3,641.6l-12.7,7.3l1,0.6l12.7-7.3L363.3,641.6z M328.1,645.7
						l-18,10.4l1,0.6l18-10.4L328.1,645.7z M342,643.4l-1-0.6l-7,4.1l1,0.6L342,643.4z"/>
					<g>
						<polygon class="st40" points="292.7,579.3 287.8,582.2 282.8,579.3 287.8,576.5 						"/>
						<polygon class="st40" points="298.9,575.8 293.9,578.6 289,575.8 293.9,572.9 						"/>
						<path class="st39" d="M290.5,575.8l3.4,2l3.4-2l-3.4-2L290.5,575.8z M296.2,575.8l-2.2,1.3l-2.2-1.3l2.2-1.3L296.2,575.8z"/>
						<polygon class="st40" points="305,572.2 300.1,575.1 295.1,572.2 300.1,569.4 						"/>
						<polygon class="st39" points="297.2,572.5 299.8,572.5 299.8,574 300.7,574 300.7,572.5 303.3,572.5 303.3,572 300.7,572 
							300.7,570.4 299.8,570.4 299.8,572 297.2,572 						"/>
						<polygon class="st39" points="291.1,579.4 287.9,581.2 287.3,580.9 290.5,579 						"/>
					</g>
				</g>
			</g>
			<g>
				<g>
					<path class="st39" d="M309.7,596c-1.3,0.8-2.3,1.7-2.9,2.6c-3.2-0.7-7-0.4-9.5,1.1c-0.3,0.2-0.5,0.3-0.7,0.5
						c-4.5-2.3-11.3-2.2-15.4,0.2c-3.9,2.3-4.2,5.8-0.9,8.4c-1.4,0.3-2.7,0.8-3.9,1.5c-4.4,2.5-4.4,6.6-0.3,9.3
						c-1.3,0.3-2.5,0.7-3.5,1.3c-4.3,2.5-4.2,6.6,0.3,9.2c4.5,2.6,11.7,2.7,16,0.2l40.2-23.2c5.2-3,5-7.9-0.4-11
						C323.4,593.1,314.8,593,309.7,596z"/>
					<path class="st16" d="M285.2,619.3l6.3,3.6l25.7-14.8l-6.3-3.6L285.2,619.3z M316.1,608l-24.7,14.2l-5.2-3l24.7-14.2L316.1,608
						z M305.6,609.1l3.5,2l-17.8,10.2l-3.5-2L305.6,609.1z M283.9,616.5l2-1.1l0.4,0.2l-2.4,1.4l-4.8-2.8l0.4-0.2L283.9,616.5z
						 M287.6,612.9c1.1,0.6,1.4,1.3,0.5,1.8c-0.9,0.5-2.1,0.4-3-0.2c-1.1-0.6-1.4-1.3-0.5-1.8C285.6,612.2,286.7,612.4,287.6,612.9z
						 M287.2,613.1c-0.8-0.4-1.5-0.6-2.2-0.2c-0.6,0.4-0.4,0.8,0.3,1.2c0.9,0.5,1.7,0.6,2.3,0.3c0.6-0.4,0.4-0.8-0.3-1.2
						L287.2,613.1z M291.4,611.6l1,0.5l-0.3,0.2l-0.5-0.2c0.1,0.3,0,0.6-0.6,0.9c-0.6,0.3-1.3,0.3-1.8,0c-0.8-0.4-0.5-0.9,0-1.2
						l0.8-0.6c-0.7-0.4-1.1-0.4-1.7-0.1c-0.6,0.3-0.4,0.6,0.1,0.9l-0.4,0.2c-0.6-0.3-0.9-0.8,0-1.3c0.9-0.5,1.6-0.4,2.4,0
						L291.4,611.6z M290.2,611.4l-0.8,0.6c-0.3,0.3-0.4,0.5,0,0.8c0.3,0.2,0.8,0.2,1.2,0c0.6-0.3,0.5-0.7,0.4-0.9L290.2,611.4z
						 M294.6,609.8l1,0.5l-0.4,0.2l-0.5-0.2c0.1,0.3,0,0.6-0.4,0.8c-0.9,0.5-1.9,0.3-2.9-0.2c-1.1-0.6-1.4-1.2-0.6-1.7
						c0.4-0.3,0.9-0.3,1.3-0.3l-2.1-1.2l0.4-0.2L294.6,609.8z M292.7,609.1c-0.3,0-0.9-0.1-1.3,0.2c-0.6,0.3-0.4,0.8,0.4,1.2
						c0.9,0.5,1.7,0.6,2.3,0.3c0.4-0.2,0.4-0.6,0.3-0.8L292.7,609.1z M292.3,607.5l0.5-0.3l-0.6-0.3l-0.5,0.3L292.3,607.5z
						 M296.4,609.8l0.4-0.2l-3.3-1.9l-0.4,0.2L296.4,609.8z M295.7,606.4c-0.5,0.3-0.6,0.6-0.5,0.9l-0.5-0.2l-0.3,0.2l1,0.5l2.4,1.4
						l0.4-0.2l-2.5-1.4c-0.1-0.2-0.1-0.5,0.4-0.8c0.4-0.2,0.9-0.3,1.4,0l2.2,1.3l0.4-0.2l-2.3-1.3C297.1,606,296.3,606,295.7,606.4z
						 M299.6,604.2l0.3-0.2l0.9,0.6l2.4,1.4c0.7,0.4,0.9,0.9,0,1.5c-0.9,0.5-1.8,0.4-2.5,0c-0.1,0,0.3-0.3,0.3-0.3
						c0.6,0.4,1.2,0.4,1.8,0.1c0.6-0.4,0.5-0.7-0.1-1l-0.6-0.3c0.1,0.2,0,0.5-0.5,0.8c-0.9,0.5-1.9,0.3-2.7-0.2
						c-1-0.6-1.3-1.2-0.5-1.7c0.5-0.3,1-0.3,1.5-0.3L299.6,604.2z M300.3,604.7c-0.3,0-0.9-0.1-1.3,0.2c-0.6,0.3-0.4,0.8,0.3,1.2
						c0.8,0.5,1.6,0.6,2.2,0.2c0.4-0.3,0.4-0.6,0.3-0.8L300.3,604.7z M304,605.4l0.5-0.3l-0.6-0.3l-0.5,0.3L304,605.4z M305.3,604.7
						l0.5-0.3l-0.6-0.3l-0.5,0.3L305.3,604.7z M306,603.6l0.6,0.3l0.5-0.3l-0.6-0.3L306,603.6z"/>
				</g>
			</g>
		</g>
		<g>
			<g>
				<path class="st41" d="M329.6,766.8c0,0.7,0.3,1.2,0.7,1.3c0.3,0.1,0.8,0.2,1.6-0.2c1.4-0.8,2.6-3.3,1.2-4.5
					c-0.3-0.3-0.9-0.3-1.4,0C330.5,764.1,329.6,765.6,329.6,766.8z"/>
				
					<linearGradient id="SVGID_17_" gradientUnits="userSpaceOnUse" x1="427.9163" y1="708.4964" x2="436.3922" y2="723.1769" gradientTransform="matrix(-1 0 0 1 679.7717 0)">
					<stop  offset="0" style="stop-color:#1C1E29"/>
					<stop  offset="0.5249" style="stop-color:#252734"/>
					<stop  offset="0.7585" style="stop-color:#1C1E29"/>
					<stop  offset="0.8473" style="stop-color:#181A23"/>
				</linearGradient>
				<path class="st42" d="M164.2,673.7c0-0.2,0-0.3,0-0.4c0.1-0.8,0.2-1.5,0.4-2.2c0-0.1,0.1-0.2,0.1-0.4c0.2-0.7,0.4-1.3,0.7-1.8
					c0.1-0.1,0.1-0.3,0.2-0.4c0.3-0.5,0.6-1,0.9-1.4c0.1-0.1,0.2-0.3,0.3-0.4c0.4-0.5,0.8-0.9,1.2-1.2c0.1-0.1,0.2-0.2,0.4-0.3
					c0.6-0.5,1.1-0.8,1.3-0.9c0.7-0.4,2.9-1.5,4.9-0.3c1,0.5,81.6,47.1,127.4,77.2c15.3,10,22.2,15.2,26.5,18.8c0,0,0.4,0.4,0.6,0.6
					c0.3,0.3,0.5,0.8,0.5,1.4c0,1.6-1.1,3.4-2.5,4.2c-0.4,0.2-0.8,0.3-1.5,0.2c-0.1,0-0.2,0-0.4-0.1c-0.1,0-0.2,0-0.3-0.1
					c-0.8-0.3-1.7-0.6-2.8-1.1c-3.7-1.5-9.8-4.2-21.7-10.4c-11.2-5.8-27.7-14.8-52.2-28.7c-35.6-20.2-81.1-47.1-81.9-47.6
					c-0.1,0-0.2-0.1-0.2-0.1c-0.7-0.4-1.1-1-1.4-1.6c-0.1-0.2-0.2-0.4-0.3-0.6c0-0.1,0-0.2-0.1-0.3c-0.1-0.3-0.2-0.6-0.2-1
					c0-0.2,0-0.3,0-0.5C164.2,674,164.2,673.8,164.2,673.7C164.2,673.7,164.2,673.7,164.2,673.7z"/>
				<path class="st43" d="M327.2,760.4c0.7-0.4,1.4-0.4,1.8,0l4,3.2c-0.3-0.3-0.9-0.3-1.4,0c-1.1,0.6-2,2.1-2,3.3
					c0,0.7,0.3,1.2,0.7,1.3l-4.7-1.9c-0.5-0.2-0.9-0.8-0.9-1.7C324.8,763,325.9,761.1,327.2,760.4z"/>
				<path class="st43" d="M332,764.3c0.5-0.3,0.9-0.2,1.2,0c0.9,0.9,3.4,3.2,3.9,3.7c-0.1-0.1-0.3-0.1-0.5,0
					c-0.4,0.2-0.7,0.7-0.7,1.2c0,0.3,0.1,0.4,0.3,0.5c-0.7-0.2-3.9-1.2-5.1-1.6c-0.4-0.1-0.6-0.5-0.6-1.1
					C330.5,765.9,331.2,764.7,332,764.3z"/>
				<path class="st41" d="M336.6,768c0.2-0.1,0.4-0.1,0.5,0c0.4,0.4,0.7,0.6,0.8,1c0.1,0.6-0.3,0.8-0.3,0.8
					c-0.4,0.2-0.8,0.1-1.4-0.1c-0.2-0.1-0.3-0.2-0.3-0.5C335.9,768.7,336.2,768.2,336.6,768z"/>
			</g>
			<polygon class="st29" points="173.3,671.2 225.3,701.2 229.6,698.7 177.6,668.7 			"/>
			<g class="st1">
				<g>
					<polygon class="st44" points="183.9,673.1 187.3,671.1 177.5,669 174.1,671 					"/>
				</g>
				<g>
					<polygon class="st45" points="225.7,698.3 229.2,696.3 229.2,695.3 225.8,697.3 					"/>
				</g>
				<g>
					
						<linearGradient id="SVGID_18_" gradientUnits="userSpaceOnUse" x1="1161.3315" y1="684.1954" x2="1206.6252" y2="684.1954" gradientTransform="matrix(-1 0 0 1 1390.4969 0)">
						<stop  offset="0" style="stop-color:#F5ABFF"/>
						<stop  offset="0.4557" style="stop-color:#FFC5FF"/>
						<stop  offset="1" style="stop-color:#FFDEFF"/>
					</linearGradient>
					<polygon class="st46" points="225.8,697.3 229.2,695.3 187.3,671.1 183.9,673.1 					"/>
				</g>
				<g>
					<polygon class="st3" points="183.9,673.1 174.1,671 186.1,677.9 188.3,676.7 225.7,698.3 225.8,697.3 					"/>
				</g>
			</g>
		</g>
		<g>
			<path class="st0" d="M653.8,714.2h-63.6c-20.7,0-69.4,47.3-51.3,56.1l0,0.3c-0.6,4.5,2.8,8.5,7.4,8.5c7.5,1,13.8,1.3,18.5,1.4
				c10.8,0.2,20.4,0.2,31.3-4.2c2.6-1.1,4.6-2.1,6-2.8l3-1.7h48.9V714.2z"/>
			<g>
				<g id="Axonometric_Cylinder">
					
						<linearGradient id="Cylinder_face_1_" gradientUnits="userSpaceOnUse" x1="598.8797" y1="661.2083" x2="697.5201" y2="661.2083">
						<stop  offset="0" style="stop-color:#F5ABFF"/>
						<stop  offset="0.4557" style="stop-color:#FFC5FF"/>
						<stop  offset="1" style="stop-color:#FFDEFF"/>
					</linearGradient>
					<ellipse id="Cylinder_face_37_" class="st47" cx="648.2" cy="661.2" rx="49.3" ry="28.5"/>
					
						<linearGradient id="Cylinder_face_2_" gradientUnits="userSpaceOnUse" x1="604.0721" y1="661.2083" x2="692.3278" y2="661.2083">
						<stop  offset="0" style="stop-color:#B879D9"/>
						<stop  offset="1" style="stop-color:#8B3DCE"/>
					</linearGradient>
					<ellipse id="Cylinder_face_39_" class="st48" cx="648.2" cy="661.2" rx="44.1" ry="25.5"/>
					<path class="st49" d="M679.4,656.3c-17.2-9.9-45.2-9.9-62.4,0c-5.7,3.3-9.5,7.3-11.4,11.5c1.9,4.2,5.7,8.2,11.4,11.5
						c17.2,9.9,45.2,9.9,62.4,0c5.7-3.3,9.5-7.3,11.4-11.5C688.9,663.6,685.1,659.6,679.4,656.3z"/>
					
						<linearGradient id="Cylinder_body_1_" gradientUnits="userSpaceOnUse" x1="598.882" y1="716.4417" x2="697.5201" y2="716.4417">
						<stop  offset="0" style="stop-color:#8B3DCE"/>
						<stop  offset="1" style="stop-color:#B879D9"/>
					</linearGradient>
					<path id="Cylinder_body_35_" class="st50" d="M697.5,660.9v82.3c0.1,7.4-4.7,14.8-14.4,20.4c-19.3,11.1-50.5,11.1-69.7,0
						c-9.5-5.5-14.3-12.7-14.4-19.9v-82.3c0.1,7.2,4.9,14.4,14.4,19.9c19.3,11.1,50.5,11.1,69.7,0
						C692.8,675.7,697.6,668.3,697.5,660.9z"/>
					<linearGradient id="SVGID_19_" gradientUnits="userSpaceOnUse" x1="635.31" y1="716.3413" x2="693.983" y2="716.3413">
						<stop  offset="0" style="stop-color:#9246D0"/>
						<stop  offset="0.3144" style="stop-color:#BD78E3"/>
						<stop  offset="0.6187" style="stop-color:#E1A2F2"/>
						<stop  offset="0.857" style="stop-color:#F7BCFB"/>
						<stop  offset="1" style="stop-color:#FFC5FF"/>
					</linearGradient>
					<path class="st51" d="M683.1,681.3c-8.2,4.7-18.6,7.4-29.3,8.1v82.3c10.7-0.7,21.1-3.4,29.3-8.1c9.7-5.6,14.6-13,14.4-20.4
						v-82.3C697.6,668.3,692.8,675.7,683.1,681.3z"/>
					<linearGradient id="SVGID_20_" gradientUnits="userSpaceOnUse" x1="652.1464" y1="710.0812" x2="697.6838" y2="710.0812">
						<stop  offset="0" style="stop-color:#9246D0"/>
						<stop  offset="0.3144" style="stop-color:#BD78E3"/>
						<stop  offset="0.6187" style="stop-color:#E1A2F2"/>
						<stop  offset="0.857" style="stop-color:#F7BCFB"/>
						<stop  offset="1" style="stop-color:#FFC5FF"/>
					</linearGradient>
					<path class="st52" d="M689.3,677v82.3c5.6-4.8,8.3-10.4,8.2-16v-82.3C697.6,666.5,694.9,672.1,689.3,677z"/>
				</g>
				<g class="st1">
					<path class="st53" d="M619.3,746.7c-0.5-1.3-2.1-2.9-4.3-4.2l-1.4-0.8c-2.6-1.5-5.3-2.1-6.4-1.5l-0.3,0.2l-0.3,0.2l-0.3,0.2
						l-0.3,0.2l-0.3,0.2l-0.3,0.2l-0.3,0.2l-0.4,0.2l-0.4,0.2l-0.4,0.2l-0.4,0.2l-0.4,0.2l-0.4,0.2l-0.4,0.2l-0.4,0.2l-0.4,0.2
						l-0.4,0.2l-0.4,0.2l-0.8,0.5c0.1,0,0.2-0.1,0.3-0.1c-0.1,0-0.2,0-0.3,0.1c-1.6,0.9-2.9,1.3-3.9,1.2c0.5,0.1,9.9,12.2,14.2,9.7
						l9-7.4c0.1-0.1,0.1-0.2,0.1-0.4C619.5,747.3,619.5,747,619.3,746.7z"/>
					<linearGradient id="SVGID_21_" gradientUnits="userSpaceOnUse" x1="597.4584" y1="755.91" x2="618.7446" y2="657.0556">
						<stop  offset="0" style="stop-color:#8B3DCE"/>
						<stop  offset="1" style="stop-color:#B879D9"/>
					</linearGradient>
					<path class="st54" d="M619.3,754.2l-7,4c-8.4,4.9-15.3,0.9-15.3-8.7l-0.1-26.4c-0.7,0.4-3.7-0.7-6.8-2.5l-1.4-0.8
						c-2.6-1.5-4.4-3.1-4.4-3.7l0,2.6l0,2.6l0,2.6l0,2.6l0,2.6l0,2.6l0,2.6l0,2.6l0,2.6l0,2.6c0.1,5.6,1.7,9.8,9.3,14.3l1.4,0.8
						c8.3,4.8,12.9,3.2,17.2,0.9l0.4-0.2l0.4-0.2l0.4-0.2l0.4-0.2l0.4-0.2l0.4-0.2l0.4-0.2l0.4-0.2l0.4-0.2l0.4-0.2l0.4-0.2l0.4-0.2
						l0.4-0.2l0.3-0.2l0.3-0.2l0.3-0.2l0.3-0.2l0.3-0.2l0.3-0.2l0.3-0.2C619.5,754.3,619.4,754.3,619.3,754.2z"/>
					<linearGradient id="SVGID_22_" gradientUnits="userSpaceOnUse" x1="609.577" y1="684.53" x2="587.3888" y2="732.8752">
						<stop  offset="0" style="stop-color:#F6AFFF"/>
						<stop  offset="1" style="stop-color:#B879D9"/>
					</linearGradient>
					<path class="st55" d="M619.2,691.6c-0.5-1.3-2.1-2.9-4.3-4.2l-1.4-0.8c-2.6-1.5-5.3-2.1-6.4-1.5l-0.3,0.2l-0.3,0.2l-0.3,0.2
						l-0.3,0.2l-0.3,0.2l-0.3,0.2l-0.3,0.2l-0.4,0.2l-0.4,0.2l-0.4,0.2l-0.4,0.2l-0.4,0.2l-0.4,0.2l-0.4,0.2l-0.4,0.2l-0.4,0.2
						l-0.4,0.2l-0.4,0.2l-0.4,0.2l-0.4,0.2c0.6-0.3,0.6-0.3,0,0c-8.9,5.6-15.1,16.4-15.4,26.8c0,0.6,1.8,2.2,4.4,3.7l1.4,0.8
						c3.1,1.8,6.1,2.9,6.8,2.5c0-9.7,22.2-30.4,22.2-30.4c0.1-0.1,0.1-0.2,0.1-0.4C619.3,692.2,619.3,691.9,619.2,691.6z"/>
					<linearGradient id="SVGID_23_" gradientUnits="userSpaceOnUse" x1="604.8651" y1="753.6509" x2="616.0894" y2="699.3661">
						<stop  offset="0" style="stop-color:#B26DDB"/>
						<stop  offset="1" style="stop-color:#D490EB"/>
					</linearGradient>
					<path class="st56" d="M612.2,703.2c2.6-1.5,5.6-3.2,7.1-4.1c0-0.1,0-0.5,0-0.5l0-0.3l0-0.3l0-0.4l0-0.4l0-0.4l0-0.4l0-0.4
						l0-0.4l0-0.4l0-0.4l0-0.4l0-0.4l0-0.4l0-0.4l0-0.3l0-0.3l0-0.3l0-0.3c0,0.2,0,0.4-0.1,0.6c-1.5,0.9-4.3,2.5-7,4
						c-8.4,4.9-15.2,16.7-15.2,26.3c0,8.8,0,17.6,0.1,26.4c0,9.7,6.9,13.6,15.3,8.7c2.8-1.6,5.5-3.2,7-4c0.1,0.1,0.1-0.2,0.1-0.2
						l0-0.3l0-0.3l0-0.3l0-0.4l0-0.4l0-0.4l0-0.4l0-0.4l0-0.4l0-0.4l0-0.4l0-0.4l0-0.4l0-0.4l0-0.4l0-0.3l0-0.3l0-0.3l0-0.3
						c0,0.2,0,0.4-0.1,0.6c-1.5,0.9-4.3,2.5-7,4c-5.4,3.1-9.7,0.6-9.8-5.6c0-8.8,0-17.6-0.1-26.4
						C602.5,713.8,606.8,706.3,612.2,703.2z"/>
				</g>
			</g>
		</g>
	</g>
	<g>
		<g>
			<polygon class="st6" points="798,65.7 626.5,164.7 626.5,349.8 798.2,250.7 			"/>
			<path class="st39" d="M713,150.7v2.1l15-8.6v-2.1L713,150.7z M730.1,140.8v2.1l12-7v-2.1L730.1,140.8z M730.9,148.6v2.1l22.5-13
				v-2.1L730.9,148.6z M703.9,172.3v2.1l15-8.6v-2.1L703.9,172.3z M728.7,149.8l-27,15.6v2.1l27-15.6V149.8z M733,155.5l-12,7v2.1
				l12-7V155.5z M771.4,117l-27.1,15.7v2.1l27.1-15.7V117z M699.7,168.6v-2.1L645.3,198v2.1L699.7,168.6z M674.3,175.1v-2.1
				l-29,16.7v2.1L674.3,175.1z M735.1,154.3v2.1l27.1-15.7v-2.1L735.1,154.3z M755.5,134.4v2.1l12-7v-2.1L755.5,134.4z M665.1,196.7
				v-2.1l-19.5,11.3v2.1L665.1,196.7z M701.8,173.5l-34.5,19.9v2.1l34.5-19.9V173.5z M710.9,154v-2.1l-34.5,19.9v2.1L710.9,154z
				 M703.9,184.5v2.1l15-8.6v-2.1L703.9,184.5z M699.8,197.1V195l-26.6,15.4v2.1L699.8,197.1z M733,167.7l-12,7v2.1l12-7V167.7z
				 M705.7,199.8v2.1l26.6-15.4v-2.1L705.7,199.8z M735.1,166.5v2.1l27.1-15.7v-2.1L735.1,166.5z M755.7,164.9l15.8-9.1v-2.1
				l-15.8,9.1V164.9z M734.4,183.2v2.1l11.7-6.7v-2.1L734.4,183.2z M665.1,209v-2.1l-19.5,11.3v2.1L665.1,209z M701.8,185.8
				l-34.5,19.9v2.1l34.5-19.9V185.8z M702,193.8v2.1l27-15.6v-2.1L702,193.8z M753.5,164L731,177v2.1l22.5-13V164z M738.8,188.9
				l-15,8.6v2.1l15-8.6V188.9z M772.5,144.9l-8.1,4.7v2.1l8.1-4.7V144.9z M740.9,189.7l13.6-7.9v-2.1l-13.6,7.9V189.7z M748.2,177.3
				l17.5-10.1v-2.1l-17.5,10.1V177.3z M721.7,198.8l-34.5,19.9v2.1l34.5-19.9V198.8z M676.1,225.1l-30.6,17.7v2.1l30.6-17.7V225.1z
				 M667.4,221.9l-21.9,12.7v2.1l21.9-12.7V221.9z M685.1,222v-2.1l-6.9,4v2.1L685.1,222z M671.1,213.7v-2.1l-25.5,14.8v2.1
				L671.1,213.7z M703.6,203.1v-2.1l-34,19.7v2.1L703.6,203.1z M719,227.5l27.1-15.7v2.1L719,229.5V227.5z M712.8,241.3v-2.1
				l-27,15.6v2.1L712.8,241.3z M704.9,237.7l12-7v-2.1l-12,7V237.7z M702.8,238.9v-2.1l-15,8.6v2.1L702.8,238.9z M739.4,209.6l12-7
				v-2.1l-12,7V209.6z M748.3,210.6v2.1l25-14.4v-2.1L748.3,210.6z M683.7,258.1V256l-38.5,22.2v2.1L683.7,258.1z M685.7,240.6
				l27-15.6V223l-27,15.6V240.6z M714.8,223.8l22.5-13v-2.1l-22.5,13V223.8z M683.6,241.9v-2.1l-38.2,22.1v2.1L683.6,241.9z
				 M753.5,201.4l17.1-9.9v-2.1l-17.1,9.9V201.4z M685.7,246.8l-40.5,23.4v2.1l40.5-23.4V246.8z M645.6,255.6l12.6-7.3v-2.1
				l-12.6,7.3V255.6z M757.4,189v2.1l15-8.7v-2.1L757.4,189z M728.1,207.9l27.1-15.7v-2.1l-27.1,15.7V207.9z M714,216.1l12-7v-2.1
				l-12,7V216.1z M696.9,226l15-8.6v-2.1l-15,8.6V226z M660.3,247.1l34.5-19.9v-2.1l-34.5,19.9V247.1z M730.9,241.4v2.1l22.5-13
				v-2.1L730.9,241.4z M703.9,265.1v2.1l15-8.6v-2.1L703.9,265.1z M728.7,242.6l-27,15.6v2.1l27-15.6V242.6z M699.8,277.7v-2.1
				L673.2,291v2.1L699.8,277.7z M733,248.3l-12,7v2.1l12-7V248.3z M699.7,261.4v-2.1l-54.4,31.4v2.1L699.7,261.4z M705.7,280.4v2.1
				l26.6-15.4V265L705.7,280.4z M735.1,247.1v2.1l27.1-15.7v-2.1L735.1,247.1z M755.5,227.1v2.1l12-7v-2.1L755.5,227.1z
				 M755.7,245.4l15.8-9.1v-2.1l-15.8,9.1V245.4z M734.4,263.8v2.1l11.7-6.7v-2.1L734.4,263.8z M665.1,289.5v-2.1l-19.5,11.3v2.1
				L665.1,289.5z M701.8,266.3l-34.5,19.9v2.1l34.5-19.9V266.3z M702,274.4v2.1l27-15.6v-2.1L702,274.4z M753.5,244.6l-22.5,13v2.1
				l22.5-13V244.6z M769.6,219v2.1l10.2-5.9v-2.1L769.6,219z M772.5,225.5l-8.1,4.7v2.1l8.1-4.7V225.5z M667.4,302.5l-21.9,12.7v2.1
				l21.9-12.7V302.5z M671.1,294.2v-2.1l-25.5,14.8v2.1L671.1,294.2z M703.6,283.7v-2.1l-34,19.7v2.1L703.6,283.7z"/>
			<polygon class="st38" points="798,65.7 626.5,164.7 626.5,181.3 798,82.3 			"/>
		</g>
		<g>
			<polygon class="st40" points="768.1,96.5 757.1,102.9 757.1,91.8 768.1,85.4 			"/>
			<polygon class="st40" points="781.8,88.6 770.8,94.9 770.8,83.9 781.8,77.5 			"/>
			<path class="st39" d="M772.5,84.6v7.6l7.6-4.4v-7.6L772.5,84.6z M778.8,87.3l-5,2.9v-5l5-2.9V87.3z"/>
			<polygon class="st40" points="795.5,80.6 784.5,87 784.5,76 795.5,69.6 			"/>
			<polygon class="st39" points="786.3,77.7 789.2,78.9 786.3,83.6 787.2,84 790.2,79.3 793.1,80.6 794.1,79.1 791.1,77.8 
				794.1,73.2 793.1,72.8 790.2,77.4 787.2,76.2 			"/>
			<polygon class="st39" points="766.2,95.8 759.1,99.9 759.1,98.6 766.2,94.5 			"/>
		</g>
	</g>
	<g>
		<g>
			<polygon class="st6" points="348.7,154.3 177.2,253.4 177.2,364.6 348.9,265.5 			"/>
			<path class="st39" d="M269.7,239.6l27.1-15.7v2.1l-27.1,15.7V239.6z M265.6,250.1v2.1l22.5-13v-2.1L265.6,250.1z M263.5,253.4
				v-2.1l-13.8,7.9v2.1L263.5,253.4z M249.7,253.2l17.9-10.3v-2.1l-17.9,10.3V253.2z M290.1,221.7l12-7v-2.1l-12,7V221.7z
				 M299,222.7v2.1l25-14.4v-2.1L299,222.7z M315,221.6l-24.7,14.3v2.1l24.7-14.3V221.6z M249.8,245l13.6-7.8v-2.1l-13.6,7.8V245z
				 M265.5,236l22.5-13v-2.1l-22.5,13V236z M304.2,213.6l17.1-9.9v-2.1l-17.1,9.9V213.6z M265.6,263.3v2.1l22.5-13v-2.1L265.6,263.3
				z M263.5,266.6v-2.1l-13.6,7.8v2.1L263.5,266.6z M250,280.5v2.1l28.7-16.6V264L250,280.5z M280.8,262.7v2.1l12-7v-2.1
				L280.8,262.7z M281.5,270.5v2.1l22.5-13v-2.1L281.5,270.5z M250.1,296.8v2.1l19.4-11.2v-2.1L250.1,296.8z M279.4,271.7l-29.4,17
				v2.1l29.4-17V271.7z M283.7,277.4l-12,7v2.1l12-7V277.4z M322.1,238.9l-27.1,15.7v2.1l27.1-15.7V238.9z M315,234.8l-24.7,14.3
				v2.1l24.7-14.3V234.8z M285.8,276.2v2.1l27.1-15.7v-2.1L285.8,276.2z M306.2,256.2v2.1l12-7v-2.1L306.2,256.2z M317.1,233.6v2.1
				l14.4-8.3v-2.1L317.1,233.6z M320.3,248.1v2.1l7.4-4.3v-2.1L320.3,248.1z M323.2,254.6l-8.1,4.7v2.1l8.1-4.7V254.6z"/>
			<path class="st57" d="M235.7,274.4v-9.3c0-9.4-7.6-12.6-17-7.2c-9.4,5.4-17,17.4-17,26.8v9.1c-3.2,2.3-5.6,6.5-5.6,9.8V326
				c0,3.7,3,4.9,6.6,2.8l31.5-18.2c3.7-2.1,6.6-6.8,6.6-10.4v-22.3C240.8,274.8,238.6,273.4,235.7,274.4z M218.7,261.9
				c7.2-4.1,13-1.7,13,5.5v9l-26.1,15v-9C205.7,275.3,211.5,266.1,218.7,261.9z M219.8,299.2V310l-2.8,1.6v-10.9
				c-1.3,0.2-2.2-0.6-2.2-2.1c0-2,1.6-4.6,3.6-5.7c2-1.2,3.6-0.5,3.6,1.5C222.1,296.1,221.1,297.9,219.8,299.2z"/>
			<polygon class="st38" points="348.7,154.3 177.2,253.4 177.2,269.9 348.7,170.9 			"/>
		</g>
		<g>
			<polygon class="st40" points="318.8,185.3 307.7,191.6 307.7,180.6 318.8,174.2 			"/>
			<polygon class="st40" points="332.5,177.4 321.4,183.7 321.4,172.7 332.5,166.3 			"/>
			<path class="st39" d="M323.2,173.4v7.6l7.6-4.4v-7.6L323.2,173.4z M329.4,176.1l-5,2.9v-5l5-2.9V176.1z"/>
			<polygon class="st40" points="346.2,169.4 335.1,175.8 335.1,164.8 346.2,158.4 			"/>
			<polygon class="st39" points="336.9,166.5 339.9,167.7 336.9,172.4 337.9,172.8 340.8,168.1 343.8,169.3 344.7,167.9 
				341.8,166.6 344.7,161.9 343.8,161.5 340.8,166.2 337.9,165 			"/>
			<polygon class="st39" points="316.8,184.6 309.8,188.7 309.8,187.4 316.8,183.3 			"/>
		</g>
	</g>
	<g>
		<g>
			<path class="st27" d="M853.5,362.9c-0.5,0-0.8-0.4-0.8-0.8V13.7c0-1-0.5-2-1.4-2.5c-0.9-0.5-2-0.5-2.9,0L561.9,176.6
				c-0.3,0.2-0.6,0.2-0.8,0c-0.3-0.2-0.4-0.4-0.4-0.7c0.6-0.5,1.1-1,1.7-1.5L847.4,9.8c1.4-0.8,3.2-0.8,4.6,0c1.4,0.8,2.3,2.3,2.3,4
				V362C854.3,362.5,853.9,362.9,853.5,362.9z"/>
		</g>
		<g>
			<path class="st27" d="M317.7,587.2c-0.5,0-0.8-0.4-0.8-0.8V325c0-5.5,3-10.7,7.8-13.5c79.2-45.7,158.5-91.5,237.7-137.2
				c-0.1,0.7-0.3,1.5-0.4,2.2c-78.8,45.5-157.6,91-236.4,136.5c-4.3,2.5-6.9,7.1-6.9,12v261.3C318.6,586.8,318.2,587.2,317.7,587.2z
				"/>
		</g>
		<g>
			<path class="st27" d="M617.3,535.6c-0.5,0-0.8-0.4-0.8-0.8V235.9c0-3.2-1.7-6.1-4.4-7.7l-70.1-40.5c-0.3-0.2-0.4-0.4-0.4-0.7
				c0.6-0.2,1.1-0.3,1.7-0.5l69.7,40.2c3.3,1.9,5.3,5.4,5.3,9.2v298.8C618.1,535.2,617.8,535.6,617.3,535.6z"/>
		</g>
		<ellipse class="st27" cx="853.5" cy="362" rx="7.4" ry="4.3"/>
		<path class="st27" d="M622.5,532.2c2.9,1.7,2.9,4.4,0,6.1s-7.6,1.7-10.5,0c-2.9-1.7-2.9-4.4,0-6.1
			C614.9,530.5,619.6,530.5,622.5,532.2z"/>
		<path class="st27" d="M322.9,583.4c2.9,1.7,2.9,4.4,0,6.1c-2.9,1.7-7.6,1.7-10.5,0c-2.9-1.7-2.9-4.4,0-6.1
			S320.1,581.8,322.9,583.4z"/>
	</g>
	<g>
		<g>
			<g>
				<g>
					<path class="st58" d="M981.4,412.2l-55.5,32.1c-2.9,1.7-7.5,1.7-10.4,0c-2.9-1.7-2.9-4.3,0-6l55.5-32.1c2.9-1.7,7.5-1.7,10.4,0
						C984.2,407.8,984.2,410.5,981.4,412.2z"/>
					<path class="st58" d="M999.4,422.6l-55.5,32.1c-2.9,1.7-7.5,1.7-10.4,0c-2.9-1.7-2.9-4.3,0-6l55.5-32.1c2.9-1.7,7.5-1.7,10.4,0
						C1002.3,418.3,1002.3,420.9,999.4,422.6z"/>
					<path class="st59" d="M996.3,445l-15.8,9.1c-2.9,1.7-7.5,1.7-10.4,0c-2.9-1.7-2.9-4.3,0-6l15.8-9.1c2.9-1.7,7.5-1.7,10.4,0
						C999.2,440.7,999.2,443.4,996.3,445z"/>
				</g>
				<path class="st60" d="M939.9,451c0.7,0.4,0.7,1.1,0,1.5c-0.7,0.4-1.8,0.4-2.5,0c-0.7-0.4-0.7-1.1,0-1.5
					C938.1,450.6,939.2,450.6,939.9,451z"/>
				<ellipse class="st60" cx="943.8" cy="448.7" rx="1.8" ry="1"/>
				<ellipse class="st60" cx="949.1" cy="445.7" rx="1.8" ry="1"/>
				<path class="st60" d="M955.6,441.9c0.7,0.4,0.7,1.1,0,1.5c-0.7,0.4-1.8,0.4-2.5,0c-0.7-0.4-0.7-1.1,0-1.5
					C953.7,441.5,954.9,441.5,955.6,441.9z"/>
				<ellipse class="st60" cx="959.5" cy="439.6" rx="1.8" ry="1"/>
				<ellipse class="st60" cx="964.8" cy="436.6" rx="1.8" ry="1"/>
				<ellipse class="st60" cx="970" cy="433.6" rx="1.8" ry="1"/>
				<path class="st60" d="M976.5,429.9c0.7,0.4,0.7,1.1,0,1.5c-0.7,0.4-1.8,0.4-2.5,0c-0.7-0.4-0.7-1.1,0-1.5
					C974.7,429.5,975.8,429.5,976.5,429.9z"/>
				<polygon class="st61" points="989.6,444.7 979.7,450.4 976.7,448.6 986.6,442.9 				"/>
			</g>
		</g>
		<g>
			<path class="st60" d="M917.7,440.8l3,1.8c0.7,0.4,1.4,0.3,2,0c0.7-0.4,0.7-0.9,0.6-1.1l-3.3-1.9l0.6-0.4l3.2,1.8l1.3,0.7
				l-0.5,0.3l-0.7-0.3c0.1,0.4,0,0.9-0.8,1.3c-0.9,0.5-2,0.5-2.8,0l-3.1-1.8L917.7,440.8z"/>
			<path class="st60" d="M927.8,438.7c-0.6-0.4-1.1-0.2-2.1,0.3c-1.3,0.7-2.1,0.6-2.8,0.2c-0.8-0.5-0.7-1.1,0.4-1.8
				c1.3-0.7,2.4-0.6,3.2-0.1c0,0-0.6,0.4-0.6,0.4c-0.6-0.4-1.3-0.4-2.2,0.1c-0.7,0.4-0.8,0.8-0.3,1.1c0.5,0.3,0.9,0.3,2-0.3
				c1.3-0.6,2.1-0.7,2.9-0.2c0.8,0.5,0.7,1.2-0.4,1.8c-1.3,0.8-2.5,0.6-3.2,0.2c0,0,0.6-0.4,0.6-0.4c0.5,0.3,1.2,0.4,2.1-0.1
				C928.2,439.4,928.3,439,927.8,438.7z"/>
			<path class="st60" d="M929.2,437c1,0.5,2,0.7,3,0.1s0.8-1.1,0.3-1.3l0.6-0.3c0.7,0.4,0.9,1.2-0.4,2c-1.4,0.8-3,0.6-4.2-0.1
				l-0.2-0.1c-1.2-0.7-1.6-1.6-0.3-2.4c1.4-0.8,2.9-0.5,4.2,0.2l0.3,0.2L929.2,437z M928.7,436.7l2.7-1.5c-1-0.5-2-0.7-2.9-0.1
				C927.6,435.5,927.8,436.1,928.7,436.7z"/>
			<path class="st60" d="M932.9,431.9l0.6,0.3c-0.8,0.5-0.8,0.9-0.7,1.2l3.3,1.9l-0.6,0.4l-3.2-1.8l-1.3-0.7l0.5-0.3l0.7,0.3
				c-0.1-0.4,0-0.8,0.6-1.1C932.8,432,932.9,431.9,932.9,431.9z"/>
			<path class="st60" d="M941.3,432.3l-3-1.8c-0.7-0.4-1.4-0.3-2,0c-0.7,0.4-0.7,0.9-0.6,1.1l3.3,1.9l-0.6,0.4l-3.2-1.8l-1.3-0.7
				l0.5-0.3l0.7,0.3c-0.1-0.4,0-0.9,0.8-1.3c0.9-0.5,2-0.5,2.8,0l3.1,1.8L941.3,432.3z"/>
			<path class="st60" d="M945.2,429.4c0.1,0.4-0.1,0.9-0.9,1.4c-0.8,0.5-1.8,0.5-2.6,0.1c-1.1-0.6-0.6-1.2,0.1-1.7l1.2-0.9
				c-0.9-0.5-1.5-0.6-2.4-0.1c-0.9,0.5-0.6,0.9,0,1.2l-0.6,0.3c-0.8-0.4-1.3-1.1,0.1-1.9c1.3-0.7,2.3-0.6,3.3,0l1.6,0.9l1.3,0.7
				l-0.5,0.3L945.2,429.4z M944.6,429.1l-1.2-0.7l-1.1,0.9c-0.5,0.4-0.6,0.8-0.1,1.1c0.5,0.3,1.1,0.3,1.7,0
				C944.8,429.8,944.7,429.4,944.6,429.1z"/>
			<path class="st60" d="M952.8,425.7l-3.1-1.8c-0.7-0.4-1.2-0.3-1.8,0c-0.6,0.4-0.6,0.8-0.5,1.1l3.4,1.9l-0.6,0.4l-3.1-1.8
				c-0.7-0.4-1.2-0.3-1.8,0c-0.6,0.4-0.6,0.8-0.5,1.1l3.4,1.9l-0.6,0.4l-3.2-1.8l-1.3-0.7l0.5-0.3l0.7,0.3c-0.1-0.4,0-0.8,0.7-1.2
				c0.6-0.4,1.3-0.4,1.9-0.3c-0.2-0.4,0-0.8,0.7-1.3c0.8-0.5,1.8-0.5,2.6,0l3.2,1.9L952.8,425.7z"/>
			<path class="st60" d="M953,423.3c1,0.5,2,0.7,3,0.1c0.9-0.5,0.8-1.1,0.3-1.3l0.6-0.3c0.7,0.4,0.9,1.2-0.4,2
				c-1.4,0.8-3,0.6-4.2-0.1l-0.2-0.1c-1.2-0.7-1.6-1.6-0.3-2.4c1.4-0.8,2.9-0.5,4.2,0.2l0.3,0.2L953,423.3z M952.5,423l2.7-1.5
				c-1-0.5-2-0.7-2.9-0.1C951.4,421.8,951.6,422.4,952.5,423z"/>
		</g>
	</g>
	<g>
		<g>
			<g>
				<polygon class="st6" points="1000.3,151.2 876.7,222.6 876.7,353 1000.4,281.5 				"/>
				<path class="st39" d="M956,234.6v1.5l16.9-9.7v-1.5L956,234.6z M935.7,252.4v1.5l11.2-6.5v-1.5L935.7,252.4z M954.4,235.5
					l-20.2,11.7v1.5l20.2-11.7V235.5z M957.6,239.8l-9,5.2v1.5l9-5.2V239.8z M932.6,249.6v-1.5l-40.7,23.5v1.5L932.6,249.6z
					 M959.2,238.9v1.5l20.3-11.7v-1.5L959.2,238.9z M974.4,224v1.5l9-5.2v-1.5L974.4,224z M906.7,270.7v-1.5l-14.6,8.4v1.5
					L906.7,270.7z M934.1,253.3l-25.8,14.9v1.5l25.8-14.9V253.3z M935.7,261.6v1.5l11.2-6.5v-1.5L935.7,261.6z M932.7,271v-1.5
					l-20,11.5v1.5L932.7,271z M957.6,249l-9,5.2v1.5l9-5.2V249z M937.1,273v1.5l20-11.5v-1.5L937.1,273z M959.2,248v1.5l20.3-11.7
					v-1.5L959.2,248z M974.5,246.8l11.8-6.8v-1.5l-11.8,6.8V246.8z M958.6,260.6v1.5l8.7-5v-1.5L958.6,260.6z M906.7,279.9v-1.5
					l-14.6,8.4v1.5L906.7,279.9z M934.1,262.5l-25.8,14.9v1.5l25.8-14.9V262.5z M934.3,268.5v1.5l20.2-11.7v-1.5L934.3,268.5z
					 M973,246.2l-16.9,9.7v1.5l16.9-9.7V246.2z M961.9,264.8l-11.2,6.5v1.5l11.2-6.5V264.8z M987.1,231.9l-6.1,3.5v1.5l6.1-3.5
					V231.9z M963.5,265.5l10.2-5.9V258l-10.2,5.9V265.5z M969,256.2l13.1-7.6v-1.5l-13.1,7.6V256.2z M949.1,272.2l-25.8,14.9v1.5
					l25.8-14.9V272.2z M914.9,292l-23,13.3v1.5l23-13.3V292z M908.4,289.6l-16.4,9.5v1.5l16.4-9.5V289.6z M921.6,289.6v-1.5l-5.2,3
					v1.5L921.6,289.6z M911.2,283.4v-1.5L892,292.9v1.5L911.2,283.4z M935.5,275.5v-1.5L910,288.7v1.5L935.5,275.5z M936.5,301.4
					l9-5.2v-1.5l-9,5.2V301.4z M934.9,302.3v-1.5l-11.2,6.5v1.5L934.9,302.3z M962.3,280.4l9-5.2v-1.5l-9,5.2V280.4z M922.1,303.6
					l20.2-11.7v-1.5l-20.2,11.7V303.6z M943.9,291l16.9-9.7v-1.5l-16.9,9.7V291z M920.5,304.5V303l-28.6,16.5v1.5L920.5,304.5z
					 M973,274.2l12.8-7.4v-1.5l-12.8,7.4V274.2z M922.1,308.2l-30.3,17.5v1.5l30.3-17.5V308.2z M892,314.8l9.5-5.5v-1.5l-9.5,5.5
					V314.8z M975.9,264.9v1.5l11.2-6.5v-1.5L975.9,264.9z M953.9,279.1l20.3-11.7v-1.5l-20.3,11.7V279.1z M943.3,285.2l9-5.2v-1.5
					l-9,5.2V285.2z M930.5,292.6l11.2-6.5v-1.5l-11.2,6.5V292.6z M903.1,308.5l25.8-14.9V292l-25.8,14.9V308.5z"/>
				<polygon class="st38" points="1000.3,151.2 876.7,222.6 876.7,234.8 1000.3,163.4 				"/>
			</g>
			<g id="_x32__1_">
				<path class="st57" d="M967.9,203.4c-0.1-0.1-0.2-0.2-0.3-0.2l-4.1-0.8c-0.4-0.1-0.8,0-1.3,0.3L935.5,218c-1,0.6-1.9,0.7-2.6,0.4
					l-0.4-0.2c-0.4-0.2-1-0.1-1.5,0.2l-2.9,1.6c-2.1-2.1-5.9-2.1-10.1,0.3c-6.6,3.8-12,12.3-12,19c0,6.6,5.4,8.9,12,5.1
					c4.5-2.6,8.5-7.4,10.5-12.3l3.4-1.9c0.2-0.1,0.3-0.3,0.5-0.5l2-2.9c0.2-0.4,0.6-0.7,0.9-0.9c0.2-0.1,0.4-0.2,0.6-0.3
					c0.5-0.3,1.1-0.6,1.7-0.9c0.6-0.3,1.3-0.7,1.8-1c0.9-0.5,1.6-0.9,1.9-1.1c0.3-0.2,1.7-1.5,2.5-2.2c0.4-0.3,0.8-0.6,1.1-0.6
					c0.7-0.2,2-0.4,2.7-0.6c0.1,0,0.2-0.1,0.3-0.1c0.1-0.1,0.2-0.2,0.3-0.3c0.3-0.3,0.8-0.8,1.1-1.1c0.2-0.2,0.6-0.4,1.1-0.6
					c0.5-0.2,1.1-0.4,1.5-0.5c0.3-0.1,0.5-0.2,0.7-0.3c0.3-0.2,0.9-0.8,1.6-1.4c0.2-0.2,0.4-0.3,0.5-0.5c0.5-0.5,1.1-1,1.4-1.3
					c0.3-0.3,0.6-0.5,0.9-0.5c0.2,0,0.5,0,0.8-0.1c0.3,0,0.6-0.1,1-0.1c0.6-0.1,1.3-0.1,1.6-0.1c0.2,0,0.4-0.1,0.6-0.2
					c0.2-0.1,0.4-0.3,0.6-0.5l5.5-5.8C968.1,204.8,968.2,203.9,967.9,203.4z M912.2,239.5c-2,1.2-3.6,0.5-3.6-1.5
					c0-2,1.6-4.6,3.6-5.7c2-1.2,3.6-0.5,3.6,1.5C915.9,235.8,914.2,238.3,912.2,239.5z"/>
			</g>
		</g>
		<g>
			<polygon class="st40" points="979,173.2 971.2,177.8 971.2,169.9 979,165.4 			"/>
			<polygon class="st40" points="988.8,167.6 980.9,172.2 980.9,164.3 988.8,159.7 			"/>
			<path class="st57" d="M982.2,164.8v5.4l5.4-3.1v-5.4L982.2,164.8z M986.6,166.7l-3.5,2v-3.5l3.5-2V166.7z"/>
			<polygon class="st40" points="998.5,162 990.7,166.5 990.7,158.7 998.5,154.1 			"/>
			<polygon class="st57" points="992,159.9 994.1,160.7 992,164.1 992.6,164.3 994.7,161 996.8,161.9 997.5,160.8 995.4,160 
				997.5,156.6 996.8,156.4 994.7,159.7 992.6,158.8 			"/>
			<polygon class="st57" points="977.7,172.8 972.6,175.7 972.6,174.7 977.7,171.8 			"/>
		</g>
	</g>
	<g>
		<g>
			<g>
				<path class="st58" d="M512.9,357.1l-59.2,34.4c-3,1.8-6.2,0.6-7-2.7c-0.8-3.3,1-7.3,4.1-9.1l59.2-34.4c3-1.8,6.2-0.6,7,2.7
					C517.8,351.2,516,355.3,512.9,357.1z"/>
				<path class="st58" d="M518,377.8L458.8,412c-3,1.8-6.2,0.6-7-2.7c-0.8-3.3,1-7.3,4.1-9.1l59.2-34.3c3-1.8,6.2-0.5,7,2.7
					S521.1,376,518,377.8z"/>
				<path class="st59" d="M501.4,411l-16.8,9.7c-3,1.8-6.2,0.5-7-2.7c-0.8-3.3,1-7.3,4.1-9.1l16.8-9.7c3-1.8,6.2-0.5,7,2.7
					C506.3,405.2,504.5,409.3,501.4,411z"/>
			</g>
			<path class="st60" d="M458.6,405.4c0.2,0.8-0.2,1.8-1,2.2c-0.7,0.4-1.5,0.1-1.7-0.7c-0.2-0.8,0.2-1.8,1-2.2
				C457.6,404.3,458.4,404.6,458.6,405.4z"/>
			<path class="st60" d="M464.2,402.2c0.2,0.8-0.2,1.8-1,2.2c-0.7,0.4-1.5,0.1-1.7-0.7c-0.2-0.8,0.2-1.8,1-2.2
				C463.2,401.1,464,401.4,464.2,402.2z"/>
			<path class="st60" d="M469.7,399c0.2,0.8-0.2,1.8-1,2.2c-0.7,0.4-1.5,0.1-1.7-0.7c-0.2-0.8,0.2-1.8,1-2.2
				C468.8,397.9,469.5,398.2,469.7,399z"/>
			<path class="st60" d="M475.3,395.7c0.2,0.8-0.2,1.8-1,2.2s-1.5,0.1-1.7-0.7c-0.2-0.8,0.2-1.8,1-2.2
				C474.4,394.6,475.1,394.9,475.3,395.7z"/>
			<path class="st60" d="M480.9,392.5c0.2,0.8-0.2,1.8-1,2.2c-0.7,0.4-1.5,0.1-1.7-0.7c-0.2-0.8,0.2-1.8,1-2.2
				C479.9,391.4,480.7,391.7,480.9,392.5z"/>
			<path class="st60" d="M486.5,389.3c0.2,0.8-0.2,1.8-1,2.2c-0.7,0.4-1.5,0.1-1.7-0.7c-0.2-0.8,0.2-1.8,1-2.2
				C485.5,388.2,486.3,388.5,486.5,389.3z"/>
			<path class="st60" d="M492,386c0.2,0.8-0.2,1.8-1,2.2c-0.7,0.4-1.5,0.1-1.7-0.7c-0.2-0.8,0.2-1.8,1-2.2
				C491.1,384.9,491.8,385.2,492,386z"/>
			<path class="st60" d="M497.6,382.8c0.2,0.8-0.2,1.8-1,2.2c-0.7,0.4-1.5,0.1-1.7-0.7c-0.2-0.8,0.2-1.8,1-2.2
				C496.7,381.7,497.4,382,497.6,382.8z"/>
			<polygon class="st61" points="497.2,408.7 486.7,414.8 485.8,411.3 496.4,405.2 			"/>
		</g>
		<g>
			<path class="st60" d="M450.6,384.1l0.9,3.5c0.2,0.8,0.7,0.9,1.3,0.5c0.8-0.5,1.1-1.1,1.2-1.6l-0.9-3.8l0.7-0.4l0.9,3.7l0.4,1.4
				l-0.5,0.3l-0.3-0.7c-0.2,0.6-0.6,1.3-1.4,1.8c-1,0.6-1.7,0.2-1.9-0.8l-0.9-3.6L450.6,384.1z"/>
			<path class="st60" d="M458.8,383.5c-0.2-0.7-0.6-0.6-1.6-0.2c-1.4,0.7-1.9,0.4-2-0.4c-0.2-0.9,0.3-1.9,1.5-2.6
				c1.3-0.8,2-0.4,2.3,0.6c0,0-0.6,0.4-0.6,0.4c-0.2-0.7-0.6-1-1.5-0.5c-0.7,0.4-1.1,1-1,1.6c0.1,0.5,0.4,0.7,1.5,0.1
				c1.3-0.6,1.9-0.6,2.1,0.4c0.2,0.9-0.3,1.9-1.5,2.6c-1.4,0.8-2.1,0.3-2.3-0.5c0,0,0.6-0.4,0.6-0.4c0.1,0.6,0.5,0.9,1.5,0.4
				C458.6,384.7,459,384.1,458.8,383.5z"/>
			<path class="st60" d="M460.9,381.3c0.3,1.1,0.9,1.5,1.9,1c1-0.6,1.2-1.4,1.1-2l0.6-0.4c0.2,0.8-0.2,2.1-1.6,2.9
				c-1.5,0.9-2.4,0.1-2.8-1.3l-0.1-0.2c-0.3-1.4,0-2.9,1.5-3.8c1.4-0.8,2.3-0.1,2.7,1.3l0.1,0.4L460.9,381.3z M460.8,380.7l2.8-1.6
				c-0.3-1.1-0.9-1.5-1.9-1C460.8,378.7,460.5,379.6,460.8,380.7z"/>
			<path class="st60" d="M466.9,374.5l0.2,0.6c-0.9,0.5-1.1,1.2-1.3,1.6l0.9,3.8l-0.7,0.4l-0.9-3.7l-0.4-1.4l0.5-0.3l0.3,0.6
				c0.2-0.6,0.5-1.2,1.2-1.6C466.8,374.6,466.8,374.5,466.9,374.5z"/>
			<path class="st60" d="M472.2,377.3l-0.9-3.5c-0.2-0.8-0.7-0.9-1.3-0.5c-0.8,0.4-1,1.1-1.2,1.6l0.9,3.8l-0.7,0.4l-0.9-3.7
				l-0.4-1.4l0.5-0.3l0.3,0.7c0.2-0.6,0.6-1.3,1.5-1.8c1-0.6,1.7-0.2,1.9,0.8l0.9,3.6L472.2,377.3z"/>
			<path class="st60" d="M476.8,373.8c-0.2,0.6-0.7,1.3-1.5,1.8c-0.9,0.5-1.6,0.2-1.8-0.6c-0.3-1.2,0.4-2,1.2-2.6l1.4-1.1
				c-0.2-1-0.6-1.3-1.5-0.8c-0.9,0.5-1,1.2-0.8,1.9l-0.6,0.4c-0.2-0.9-0.1-2,1.3-2.8c1.4-0.8,2-0.3,2.3,0.9l0.5,1.9l0.4,1.4
				l-0.5,0.3L476.8,373.8z M476.6,373.3l-0.3-1.4l-1.4,1.1c-0.6,0.5-0.9,1-0.8,1.6c0.1,0.5,0.5,0.8,1.2,0.4
				C476.2,374.5,476.5,373.7,476.6,373.3z"/>
			<path class="st60" d="M484.5,370.2l-0.9-3.6c-0.2-0.8-0.6-0.8-1.2-0.4c-0.7,0.4-0.9,1-1,1.5l0.9,3.8l-0.7,0.4l-0.9-3.6
				c-0.2-0.8-0.6-0.8-1.2-0.4c-0.7,0.4-0.9,1-1,1.5l0.9,3.8l-0.7,0.4l-0.9-3.7l-0.4-1.4l0.5-0.3l0.3,0.6c0.2-0.6,0.6-1.2,1.3-1.7
				c0.7-0.4,1.2-0.3,1.5,0.1c0.1-0.6,0.5-1.3,1.3-1.7c0.9-0.5,1.5-0.3,1.7,0.7l0.9,3.7L484.5,370.2z"/>
			<path class="st60" d="M486.3,366.6c0.3,1.1,0.9,1.5,1.9,1c1-0.6,1.2-1.4,1.1-2l0.6-0.4c0.2,0.8-0.2,2.1-1.6,2.9
				c-1.5,0.9-2.4,0.1-2.8-1.3l-0.1-0.2c-0.3-1.4,0-2.9,1.5-3.8c1.4-0.8,2.3-0.1,2.7,1.4l0.1,0.4L486.3,366.6z M486.1,366l2.8-1.6
				c-0.3-1.1-0.9-1.5-1.9-1C486.2,363.9,485.9,364.9,486.1,366z"/>
		</g>
	</g>
</g>
</svg>
